ISO-10303-21;
HEADER;
FILE_DESCRIPTION(('FreeCAD Model'),'2;1');
FILE_NAME('Open CASCADE Shape Model','2026-09-08T23:30:58',('Author'),(
    ''),'Open CASCADE STEP processor 7.8','FreeCAD','Unknown');
FILE_SCHEMA(('AUTOMOTIVE_DESIGN { 1 0 10303 214 1 1 1 1 }'));
ENDSEC;
DATA;
#1 = APPLICATION_PROTOCOL_DEFINITION('international standard',
  'automotive_design',2000,#2);
#2 = APPLICATION_CONTEXT(
  'core data for automotive mechanical design processes');
#3 = SHAPE_DEFINITION_REPRESENTATION(#4,#10);
#4 = PRODUCT_DEFINITION_SHAPE('','',#5);
#5 = PRODUCT_DEFINITION('design','',#6,#9);
#6 = PRODUCT_DEFINITION_FORMATION('','',#7);
#7 = PRODUCT('ContactCanonical03CGenerator',
  'ContactCanonical03CGenerator','',(#8));
#8 = PRODUCT_CONTEXT('',#2,'mechanical');
#9 = PRODUCT_DEFINITION_CONTEXT('part definition',#2,'design');
#10 = SHAPE_REPRESENTATION('',(#11,#15,#19),#23);
#11 = AXIS2_PLACEMENT_3D('',#12,#13,#14);
#12 = CARTESIAN_POINT('',(0.,0.,0.));
#13 = DIRECTION('',(0.,0.,1.));
#14 = DIRECTION('',(1.,0.,-0.));
#15 = AXIS2_PLACEMENT_3D('',#16,#17,#18);
#16 = CARTESIAN_POINT('',(0.,0.,0.));
#17 = DIRECTION('',(0.,0.,1.));
#18 = DIRECTION('',(1.,0.,0.));
#19 = AXIS2_PLACEMENT_3D('',#20,#21,#22);
#20 = CARTESIAN_POINT('',(0.,0.,0.));
#21 = DIRECTION('',(0.,0.,1.));
#22 = DIRECTION('',(1.,0.,0.));
#23 = ( GEOMETRIC_REPRESENTATION_CONTEXT(3)
GLOBAL_UNCERTAINTY_ASSIGNED_CONTEXT((#27)) GLOBAL_UNIT_ASSIGNED_CONTEXT(
(#24,#25,#26)) REPRESENTATION_CONTEXT('Context #1',
  '3D Context with UNIT and UNCERTAINTY') );
#24 = ( LENGTH_UNIT() NAMED_UNIT(*) SI_UNIT(.MILLI.,.METRE.) );
#25 = ( NAMED_UNIT(*) PLANE_ANGLE_UNIT() SI_UNIT($,.RADIAN.) );
#26 = ( NAMED_UNIT(*) SI_UNIT($,.STERADIAN.) SOLID_ANGLE_UNIT() );
#27 = UNCERTAINTY_MEASURE_WITH_UNIT(LENGTH_MEASURE(2.E-07),#24,
  'distance_accuracy_value','confusion accuracy');
#28 = PRODUCT_RELATED_PRODUCT_CATEGORY('part',$,(#7));
#29 = SHAPE_DEFINITION_REPRESENTATION(#30,#36);
#30 = PRODUCT_DEFINITION_SHAPE('','',#31);
#31 = PRODUCT_DEFINITION('design','',#32,#35);
#32 = PRODUCT_DEFINITION_FORMATION('','',#33);
#33 = PRODUCT('Body_1','Body_1','',(#34));
#34 = PRODUCT_CONTEXT('',#2,'mechanical');
#35 = PRODUCT_DEFINITION_CONTEXT('part definition',#2,'design');
#36 = ADVANCED_BREP_SHAPE_REPRESENTATION('',(#11,#37),#175);
#37 = MANIFOLD_SOLID_BREP('',#38);
#38 = CLOSED_SHELL('',(#39,#75,#111,#131,#151,#163));
#39 = ADVANCED_FACE('',(#40),#70,.F.);
#40 = FACE_BOUND('',#41,.F.);
#41 = EDGE_LOOP('',(#42,#51,#58,#65));
#42 = ORIENTED_EDGE('',*,*,#43,.F.);
#43 = EDGE_CURVE('',#44,#46,#48,.T.);
#44 = VERTEX_POINT('',#45);
#45 = CARTESIAN_POINT('',(-34.5857231933,-34.5857231933,-6.917144638661)
  );
#46 = VERTEX_POINT('',#47);
#47 = CARTESIAN_POINT('',(-34.5857231933,-34.5857231933,0.));
#48 = B_SPLINE_CURVE_WITH_KNOTS('',1,(#49,#50),.UNSPECIFIED.,.F.,.F.,(2,
    2),(0.,5.),.PIECEWISE_BEZIER_KNOTS.);
#49 = CARTESIAN_POINT('',(-34.5857231933,-34.5857231933,-6.917144638661)
  );
#50 = CARTESIAN_POINT('',(-34.5857231933,-34.5857231933,0.));
#51 = ORIENTED_EDGE('',*,*,#52,.T.);
#52 = EDGE_CURVE('',#44,#53,#55,.T.);
#53 = VERTEX_POINT('',#54);
#54 = CARTESIAN_POINT('',(-34.5857231933,34.585723193304,-6.917144638661
    ));
#55 = B_SPLINE_CURVE_WITH_KNOTS('',1,(#56,#57),.UNSPECIFIED.,.F.,.F.,(2,
    2),(0.,50.),.PIECEWISE_BEZIER_KNOTS.);
#56 = CARTESIAN_POINT('',(-34.5857231933,-34.5857231933,-6.917144638661)
  );
#57 = CARTESIAN_POINT('',(-34.5857231933,34.585723193304,-6.917144638661
    ));
#58 = ORIENTED_EDGE('',*,*,#59,.T.);
#59 = EDGE_CURVE('',#53,#60,#62,.T.);
#60 = VERTEX_POINT('',#61);
#61 = CARTESIAN_POINT('',(-34.5857231933,34.585723193304,0.));
#62 = B_SPLINE_CURVE_WITH_KNOTS('',1,(#63,#64),.UNSPECIFIED.,.F.,.F.,(2,
    2),(0.,5.),.PIECEWISE_BEZIER_KNOTS.);
#63 = CARTESIAN_POINT('',(-34.5857231933,34.585723193304,-6.917144638661
    ));
#64 = CARTESIAN_POINT('',(-34.5857231933,34.585723193304,0.));
#65 = ORIENTED_EDGE('',*,*,#66,.F.);
#66 = EDGE_CURVE('',#46,#60,#67,.T.);
#67 = B_SPLINE_CURVE_WITH_KNOTS('',1,(#68,#69),.UNSPECIFIED.,.F.,.F.,(2,
    2),(0.,50.),.PIECEWISE_BEZIER_KNOTS.);
#68 = CARTESIAN_POINT('',(-34.5857231933,-34.5857231933,0.));
#69 = CARTESIAN_POINT('',(-34.5857231933,34.585723193304,0.));
#70 = B_SPLINE_SURFACE_WITH_KNOTS('',1,1,(
    (#71,#72)
    ,(#73,#74)),.UNSPECIFIED.,.F.,.F.,.F.,(2,2),(2,2),(0.,5.),(-50.,0.),
  .PIECEWISE_BEZIER_KNOTS.);
#71 = CARTESIAN_POINT('',(-34.5857231933,34.585723193304,-6.917144638661
    ));
#72 = CARTESIAN_POINT('',(-34.5857231933,-34.5857231933,-6.917144638661)
  );
#73 = CARTESIAN_POINT('',(-34.5857231933,34.585723193304,0.));
#74 = CARTESIAN_POINT('',(-34.5857231933,-34.5857231933,0.));
#75 = ADVANCED_FACE('',(#76),#106,.T.);
#76 = FACE_BOUND('',#77,.T.);
#77 = EDGE_LOOP('',(#78,#87,#94,#101));
#78 = ORIENTED_EDGE('',*,*,#79,.F.);
#79 = EDGE_CURVE('',#80,#82,#84,.T.);
#80 = VERTEX_POINT('',#81);
#81 = CARTESIAN_POINT('',(34.585723193304,-34.5857231933,-6.917144638661
    ));
#82 = VERTEX_POINT('',#83);
#83 = CARTESIAN_POINT('',(34.585723193304,-34.5857231933,0.));
#84 = B_SPLINE_CURVE_WITH_KNOTS('',1,(#85,#86),.UNSPECIFIED.,.F.,.F.,(2,
    2),(0.,5.),.PIECEWISE_BEZIER_KNOTS.);
#85 = CARTESIAN_POINT('',(34.585723193304,-34.5857231933,-6.917144638661
    ));
#86 = CARTESIAN_POINT('',(34.585723193304,-34.5857231933,0.));
#87 = ORIENTED_EDGE('',*,*,#88,.T.);
#88 = EDGE_CURVE('',#80,#89,#91,.T.);
#89 = VERTEX_POINT('',#90);
#90 = CARTESIAN_POINT('',(34.585723193304,34.585723193304,
    -6.917144638661));
#91 = B_SPLINE_CURVE_WITH_KNOTS('',1,(#92,#93),.UNSPECIFIED.,.F.,.F.,(2,
    2),(0.,50.),.PIECEWISE_BEZIER_KNOTS.);
#92 = CARTESIAN_POINT('',(34.585723193304,-34.5857231933,-6.917144638661
    ));
#93 = CARTESIAN_POINT('',(34.585723193304,34.585723193304,
    -6.917144638661));
#94 = ORIENTED_EDGE('',*,*,#95,.T.);
#95 = EDGE_CURVE('',#89,#96,#98,.T.);
#96 = VERTEX_POINT('',#97);
#97 = CARTESIAN_POINT('',(34.585723193304,34.585723193304,0.));
#98 = B_SPLINE_CURVE_WITH_KNOTS('',1,(#99,#100),.UNSPECIFIED.,.F.,.F.,(2
    ,2),(0.,5.),.PIECEWISE_BEZIER_KNOTS.);
#99 = CARTESIAN_POINT('',(34.585723193304,34.585723193304,
    -6.917144638661));
#100 = CARTESIAN_POINT('',(34.585723193304,34.585723193304,0.));
#101 = ORIENTED_EDGE('',*,*,#102,.F.);
#102 = EDGE_CURVE('',#82,#96,#103,.T.);
#103 = B_SPLINE_CURVE_WITH_KNOTS('',1,(#104,#105),.UNSPECIFIED.,.F.,.F.,
  (2,2),(0.,50.),.PIECEWISE_BEZIER_KNOTS.);
#104 = CARTESIAN_POINT('',(34.585723193304,-34.5857231933,0.));
#105 = CARTESIAN_POINT('',(34.585723193304,34.585723193304,0.));
#106 = B_SPLINE_SURFACE_WITH_KNOTS('',1,1,(
    (#107,#108)
    ,(#109,#110
    )),.UNSPECIFIED.,.F.,.F.,.F.,(2,2),(2,2),(0.,5.),(-50.,0.),
  .PIECEWISE_BEZIER_KNOTS.);
#107 = CARTESIAN_POINT('',(34.585723193304,34.585723193304,
    -6.917144638661));
#108 = CARTESIAN_POINT('',(34.585723193304,-34.5857231933,
    -6.917144638661));
#109 = CARTESIAN_POINT('',(34.585723193304,34.585723193304,0.));
#110 = CARTESIAN_POINT('',(34.585723193304,-34.5857231933,0.));
#111 = ADVANCED_FACE('',(#112),#126,.F.);
#112 = FACE_BOUND('',#113,.F.);
#113 = EDGE_LOOP('',(#114,#119,#120,#125));
#114 = ORIENTED_EDGE('',*,*,#115,.F.);
#115 = EDGE_CURVE('',#44,#80,#116,.T.);
#116 = B_SPLINE_CURVE_WITH_KNOTS('',1,(#117,#118),.UNSPECIFIED.,.F.,.F.,
  (2,2),(0.,50.),.PIECEWISE_BEZIER_KNOTS.);
#117 = CARTESIAN_POINT('',(-34.5857231933,-34.5857231933,-6.917144638661
    ));
#118 = CARTESIAN_POINT('',(34.585723193304,-34.5857231933,
    -6.917144638661));
#119 = ORIENTED_EDGE('',*,*,#43,.T.);
#120 = ORIENTED_EDGE('',*,*,#121,.T.);
#121 = EDGE_CURVE('',#46,#82,#122,.T.);
#122 = B_SPLINE_CURVE_WITH_KNOTS('',1,(#123,#124),.UNSPECIFIED.,.F.,.F.,
  (2,2),(0.,50.),.PIECEWISE_BEZIER_KNOTS.);
#123 = CARTESIAN_POINT('',(-34.5857231933,-34.5857231933,0.));
#124 = CARTESIAN_POINT('',(34.585723193304,-34.5857231933,0.));
#125 = ORIENTED_EDGE('',*,*,#79,.F.);
#126 = B_SPLINE_SURFACE_WITH_KNOTS('',1,1,(
    (#127,#128)
    ,(#129,#130
  )),.UNSPECIFIED.,.F.,.F.,.F.,(2,2),(2,2),(0.,5.),(0.,50.),
  .PIECEWISE_BEZIER_KNOTS.);
#127 = CARTESIAN_POINT('',(-34.5857231933,-34.5857231933,-6.917144638661
    ));
#128 = CARTESIAN_POINT('',(34.585723193304,-34.5857231933,
    -6.917144638661));
#129 = CARTESIAN_POINT('',(-34.5857231933,-34.5857231933,0.));
#130 = CARTESIAN_POINT('',(34.585723193304,-34.5857231933,0.));
#131 = ADVANCED_FACE('',(#132),#146,.T.);
#132 = FACE_BOUND('',#133,.T.);
#133 = EDGE_LOOP('',(#134,#139,#140,#145));
#134 = ORIENTED_EDGE('',*,*,#135,.F.);
#135 = EDGE_CURVE('',#53,#89,#136,.T.);
#136 = B_SPLINE_CURVE_WITH_KNOTS('',1,(#137,#138),.UNSPECIFIED.,.F.,.F.,
  (2,2),(0.,50.),.PIECEWISE_BEZIER_KNOTS.);
#137 = CARTESIAN_POINT('',(-34.5857231933,34.585723193304,
    -6.917144638661));
#138 = CARTESIAN_POINT('',(34.585723193304,34.585723193304,
    -6.917144638661));
#139 = ORIENTED_EDGE('',*,*,#59,.T.);
#140 = ORIENTED_EDGE('',*,*,#141,.T.);
#141 = EDGE_CURVE('',#60,#96,#142,.T.);
#142 = B_SPLINE_CURVE_WITH_KNOTS('',1,(#143,#144),.UNSPECIFIED.,.F.,.F.,
  (2,2),(0.,50.),.PIECEWISE_BEZIER_KNOTS.);
#143 = CARTESIAN_POINT('',(-34.5857231933,34.585723193304,0.));
#144 = CARTESIAN_POINT('',(34.585723193304,34.585723193304,0.));
#145 = ORIENTED_EDGE('',*,*,#95,.F.);
#146 = B_SPLINE_SURFACE_WITH_KNOTS('',1,1,(
    (#147,#148)
    ,(#149,#150
  )),.UNSPECIFIED.,.F.,.F.,.F.,(2,2),(2,2),(0.,5.),(0.,50.),
  .PIECEWISE_BEZIER_KNOTS.);
#147 = CARTESIAN_POINT('',(-34.5857231933,34.585723193304,
    -6.917144638661));
#148 = CARTESIAN_POINT('',(34.585723193304,34.585723193304,
    -6.917144638661));
#149 = CARTESIAN_POINT('',(-34.5857231933,34.585723193304,0.));
#150 = CARTESIAN_POINT('',(34.585723193304,34.585723193304,0.));
#151 = ADVANCED_FACE('',(#152),#158,.F.);
#152 = FACE_BOUND('',#153,.F.);
#153 = EDGE_LOOP('',(#154,#155,#156,#157));
#154 = ORIENTED_EDGE('',*,*,#52,.F.);
#155 = ORIENTED_EDGE('',*,*,#115,.T.);
#156 = ORIENTED_EDGE('',*,*,#88,.T.);
#157 = ORIENTED_EDGE('',*,*,#135,.F.);
#158 = B_SPLINE_SURFACE_WITH_KNOTS('',1,1,(
    (#159,#160)
    ,(#161,#162
    )),.UNSPECIFIED.,.F.,.F.,.F.,(2,2),(2,2),(0.,50.),(0.,50.),
  .PIECEWISE_BEZIER_KNOTS.);
#159 = CARTESIAN_POINT('',(-34.5857231933,-34.5857231933,-6.917144638661
    ));
#160 = CARTESIAN_POINT('',(-34.5857231933,34.585723193304,
    -6.917144638661));
#161 = CARTESIAN_POINT('',(34.585723193304,-34.5857231933,
    -6.917144638661));
#162 = CARTESIAN_POINT('',(34.585723193304,34.585723193304,
    -6.917144638661));
#163 = ADVANCED_FACE('',(#164),#170,.T.);
#164 = FACE_BOUND('',#165,.T.);
#165 = EDGE_LOOP('',(#166,#167,#168,#169));
#166 = ORIENTED_EDGE('',*,*,#66,.F.);
#167 = ORIENTED_EDGE('',*,*,#121,.T.);
#168 = ORIENTED_EDGE('',*,*,#102,.T.);
#169 = ORIENTED_EDGE('',*,*,#141,.F.);
#170 = B_SPLINE_SURFACE_WITH_KNOTS('',1,1,(
    (#171,#172)
    ,(#173,#174
    )),.UNSPECIFIED.,.F.,.F.,.F.,(2,2),(2,2),(0.,50.),(0.,50.),
  .PIECEWISE_BEZIER_KNOTS.);
#171 = CARTESIAN_POINT('',(-34.5857231933,-34.5857231933,0.));
#172 = CARTESIAN_POINT('',(-34.5857231933,34.585723193304,0.));
#173 = CARTESIAN_POINT('',(34.585723193304,-34.5857231933,0.));
#174 = CARTESIAN_POINT('',(34.585723193304,34.585723193304,0.));
#175 = ( GEOMETRIC_REPRESENTATION_CONTEXT(3)
GLOBAL_UNCERTAINTY_ASSIGNED_CONTEXT((#179)) GLOBAL_UNIT_ASSIGNED_CONTEXT
((#176,#177,#178)) REPRESENTATION_CONTEXT('Context #1',
  '3D Context with UNIT and UNCERTAINTY') );
#176 = ( LENGTH_UNIT() NAMED_UNIT(*) SI_UNIT(.MILLI.,.METRE.) );
#177 = ( NAMED_UNIT(*) PLANE_ANGLE_UNIT() SI_UNIT($,.RADIAN.) );
#178 = ( NAMED_UNIT(*) SI_UNIT($,.STERADIAN.) SOLID_ANGLE_UNIT() );
#179 = UNCERTAINTY_MEASURE_WITH_UNIT(LENGTH_MEASURE(2.E-07),#176,
  'distance_accuracy_value','confusion accuracy');
#180 = CONTEXT_DEPENDENT_SHAPE_REPRESENTATION(#181,#183);
#181 = ( REPRESENTATION_RELATIONSHIP('','',#36,#10)
REPRESENTATION_RELATIONSHIP_WITH_TRANSFORMATION(#182)
SHAPE_REPRESENTATION_RELATIONSHIP() );
#182 = ITEM_DEFINED_TRANSFORMATION('','',#11,#15);
#183 = PRODUCT_DEFINITION_SHAPE('Placement','Placement of an item',#184
  );
#184 = NEXT_ASSEMBLY_USAGE_OCCURRENCE('1','Body_1','',#5,#31,$);
#185 = PRODUCT_RELATED_PRODUCT_CATEGORY('part',$,(#33));
#186 = SHAPE_DEFINITION_REPRESENTATION(#187,#193);
#187 = PRODUCT_DEFINITION_SHAPE('','',#188);
#188 = PRODUCT_DEFINITION('design','',#189,#192);
#189 = PRODUCT_DEFINITION_FORMATION('','',#190);
#190 = PRODUCT('Body_2','Body_2','',(#191));
#191 = PRODUCT_CONTEXT('',#2,'mechanical');
#192 = PRODUCT_DEFINITION_CONTEXT('part definition',#2,'design');
#193 = ADVANCED_BREP_SHAPE_REPRESENTATION('',(#11,#194),#316);
#194 = MANIFOLD_SOLID_BREP('',#195);
#195 = CLOSED_SHELL('',(#196,#244,#267,#290));
#196 = ADVANCED_FACE('',(#197),#229,.T.);
#197 = FACE_BOUND('',#198,.T.);
#198 = EDGE_LOOP('',(#199,#211,#218,#228));
#199 = ORIENTED_EDGE('',*,*,#200,.F.);
#200 = EDGE_CURVE('',#201,#201,#203,.T.);
#201 = VERTEX_POINT('',#202);
#202 = CARTESIAN_POINT('',(27.668578554643,-6.77684723278E-15,
    13.834289277321));
#203 = ( BOUNDED_CURVE() B_SPLINE_CURVE(2,(#204,#205,#206,#207,#208,#209
,#210),.UNSPECIFIED.,.T.,.F.) B_SPLINE_CURVE_WITH_KNOTS((1,2,2,2,2,1),(
    -2.094395102393,0.,2.094395102393,4.188790204786,6.28318530718,
8.377580409573),.UNSPECIFIED.) CURVE() GEOMETRIC_REPRESENTATION_ITEM()
RATIONAL_B_SPLINE_CURVE((1.,0.5,1.,0.5,1.,0.5,1.)) REPRESENTATION_ITEM(
  '') );
#204 = CARTESIAN_POINT('',(27.668578554643,0.,13.834289277321));
#205 = CARTESIAN_POINT('',(27.668578554643,47.923383829852,
    13.834289277321));
#206 = CARTESIAN_POINT('',(-13.83428927732,23.961691914926,
    13.834289277321));
#207 = CARTESIAN_POINT('',(-55.33715710928,6.77684723278E-15,
    13.834289277321));
#208 = CARTESIAN_POINT('',(-13.83428927732,-23.96169191492,
    13.834289277321));
#209 = CARTESIAN_POINT('',(27.668578554643,-47.92338382985,
    13.834289277321));
#210 = CARTESIAN_POINT('',(27.668578554643,0.,13.834289277321));
#211 = ORIENTED_EDGE('',*,*,#212,.F.);
#212 = EDGE_CURVE('',#213,#201,#215,.T.);
#213 = VERTEX_POINT('',#214);
#214 = CARTESIAN_POINT('',(27.668578554643,-6.77684723278E-15,0.));
#215 = B_SPLINE_CURVE_WITH_KNOTS('',1,(#216,#217),.UNSPECIFIED.,.F.,.F.,
  (2,2),(0.,10.),.PIECEWISE_BEZIER_KNOTS.);
#216 = CARTESIAN_POINT('',(27.668578554643,-6.77684723278E-15,0.));
#217 = CARTESIAN_POINT('',(27.668578554643,-6.77684723278E-15,
    13.834289277321));
#218 = ORIENTED_EDGE('',*,*,#219,.T.);
#219 = EDGE_CURVE('',#213,#213,#220,.T.);
#220 = ( BOUNDED_CURVE() B_SPLINE_CURVE(2,(#221,#222,#223,#224,#225,#226
,#227),.UNSPECIFIED.,.T.,.F.) B_SPLINE_CURVE_WITH_KNOTS((1,2,2,2,2,1),(
    -2.094395102393,0.,2.094395102393,4.188790204786,6.28318530718,
8.377580409573),.UNSPECIFIED.) CURVE() GEOMETRIC_REPRESENTATION_ITEM()
RATIONAL_B_SPLINE_CURVE((1.,0.5,1.,0.5,1.,0.5,1.)) REPRESENTATION_ITEM(
  '') );
#221 = CARTESIAN_POINT('',(27.668578554643,0.,0.));
#222 = CARTESIAN_POINT('',(27.668578554643,47.923383829852,0.));
#223 = CARTESIAN_POINT('',(-13.83428927732,23.961691914926,0.));
#224 = CARTESIAN_POINT('',(-55.33715710928,6.77684723278E-15,0.));
#225 = CARTESIAN_POINT('',(-13.83428927732,-23.96169191492,0.));
#226 = CARTESIAN_POINT('',(27.668578554643,-47.92338382985,0.));
#227 = CARTESIAN_POINT('',(27.668578554643,0.,0.));
#228 = ORIENTED_EDGE('',*,*,#212,.T.);
#229 = ( BOUNDED_SURFACE() B_SPLINE_SURFACE(2,1,(
    (#230,#231)
    ,(#232,#233)
    ,(#234,#235)
    ,(#236,#237)
    ,(#238,#239)
    ,(#240,#241)
,(#242,#243
    )),.UNSPECIFIED.,.T.,.F.,.F.) B_SPLINE_SURFACE_WITH_KNOTS((1,2,2,2,2
    ,1),(2,2),(-2.094395102393,0.,2.094395102393,4.188790204786,
    6.28318530718,8.377580409573),(0.,10.),.UNSPECIFIED.)
GEOMETRIC_REPRESENTATION_ITEM() RATIONAL_B_SPLINE_SURFACE((
    (1.,1.)
    ,(0.5,0.5)
    ,(1.,1.)
    ,(0.5,0.5)
    ,(1.,1.)
    ,(0.5,0.5)
,(1.,1.))) REPRESENTATION_ITEM('') SURFACE() );
#230 = CARTESIAN_POINT('',(27.668578554643,0.,0.));
#231 = CARTESIAN_POINT('',(27.668578554643,0.,13.834289277321));
#232 = CARTESIAN_POINT('',(27.668578554643,47.923383829852,0.));
#233 = CARTESIAN_POINT('',(27.668578554643,47.923383829852,
    13.834289277321));
#234 = CARTESIAN_POINT('',(-13.83428927732,23.961691914926,0.));
#235 = CARTESIAN_POINT('',(-13.83428927732,23.961691914926,
    13.834289277321));
#236 = CARTESIAN_POINT('',(-55.33715710928,6.77684723278E-15,0.));
#237 = CARTESIAN_POINT('',(-55.33715710928,6.77684723278E-15,
    13.834289277321));
#238 = CARTESIAN_POINT('',(-13.83428927732,-23.96169191492,0.));
#239 = CARTESIAN_POINT('',(-13.83428927732,-23.96169191492,
    13.834289277321));
#240 = CARTESIAN_POINT('',(27.668578554643,-47.92338382985,0.));
#241 = CARTESIAN_POINT('',(27.668578554643,-47.92338382985,
    13.834289277321));
#242 = CARTESIAN_POINT('',(27.668578554643,0.,0.));
#243 = CARTESIAN_POINT('',(27.668578554643,0.,13.834289277321));
#244 = ADVANCED_FACE('',(#245,#248),#262,.T.);
#245 = FACE_BOUND('',#246,.T.);
#246 = EDGE_LOOP('',(#247));
#247 = ORIENTED_EDGE('',*,*,#200,.T.);
#248 = FACE_BOUND('',#249,.T.);
#249 = EDGE_LOOP('',(#250));
#250 = ORIENTED_EDGE('',*,*,#251,.F.);
#251 = EDGE_CURVE('',#252,#252,#254,.T.);
#252 = VERTEX_POINT('',#253);
#253 = CARTESIAN_POINT('',(13.834289277321,-3.38842361639E-15,
    13.834289277321));
#254 = ( BOUNDED_CURVE() B_SPLINE_CURVE(2,(#255,#256,#257,#258,#259,#260
,#261),.UNSPECIFIED.,.T.,.F.) B_SPLINE_CURVE_WITH_KNOTS((1,2,2,2,2,1),(
    -2.094395102393,0.,2.094395102393,4.188790204786,6.28318530718,
8.377580409573),.UNSPECIFIED.) CURVE() GEOMETRIC_REPRESENTATION_ITEM()
RATIONAL_B_SPLINE_CURVE((1.,0.5,1.,0.5,1.,0.5,1.)) REPRESENTATION_ITEM(
  '') );
#255 = CARTESIAN_POINT('',(13.834289277321,0.,13.834289277321));
#256 = CARTESIAN_POINT('',(13.834289277321,23.961691914926,
    13.834289277321));
#257 = CARTESIAN_POINT('',(-6.917144638661,11.980845957463,
    13.834289277321));
#258 = CARTESIAN_POINT('',(-27.66857855464,3.38842361639E-15,
    13.834289277321));
#259 = CARTESIAN_POINT('',(-6.917144638661,-11.98084595746,
    13.834289277321));
#260 = CARTESIAN_POINT('',(13.834289277321,-23.96169191492,
    13.834289277321));
#261 = CARTESIAN_POINT('',(13.834289277321,0.,13.834289277321));
#262 = B_SPLINE_SURFACE_WITH_KNOTS('',1,1,(
    (#263,#264)
    ,(#265,#266
    )),.UNSPECIFIED.,.F.,.F.,.F.,(2,2),(2,2),(-20.,20.),(-20.,20.),
  .PIECEWISE_BEZIER_KNOTS.);
#263 = CARTESIAN_POINT('',(-27.66857855464,-27.66857855464,
    13.834289277321));
#264 = CARTESIAN_POINT('',(-27.66857855464,27.668578554643,
    13.834289277321));
#265 = CARTESIAN_POINT('',(27.668578554643,-27.66857855464,
    13.834289277321));
#266 = CARTESIAN_POINT('',(27.668578554643,27.668578554643,
    13.834289277321));
#267 = ADVANCED_FACE('',(#268,#271),#285,.F.);
#268 = FACE_BOUND('',#269,.F.);
#269 = EDGE_LOOP('',(#270));
#270 = ORIENTED_EDGE('',*,*,#219,.T.);
#271 = FACE_BOUND('',#272,.F.);
#272 = EDGE_LOOP('',(#273));
#273 = ORIENTED_EDGE('',*,*,#274,.F.);
#274 = EDGE_CURVE('',#275,#275,#277,.T.);
#275 = VERTEX_POINT('',#276);
#276 = CARTESIAN_POINT('',(13.834289277321,-3.38842361639E-15,0.));
#277 = ( BOUNDED_CURVE() B_SPLINE_CURVE(2,(#278,#279,#280,#281,#282,#283
,#284),.UNSPECIFIED.,.T.,.F.) B_SPLINE_CURVE_WITH_KNOTS((1,2,2,2,2,1),(
    -2.094395102393,0.,2.094395102393,4.188790204786,6.28318530718,
8.377580409573),.UNSPECIFIED.) CURVE() GEOMETRIC_REPRESENTATION_ITEM()
RATIONAL_B_SPLINE_CURVE((1.,0.5,1.,0.5,1.,0.5,1.)) REPRESENTATION_ITEM(
  '') );
#278 = CARTESIAN_POINT('',(13.834289277321,0.,0.));
#279 = CARTESIAN_POINT('',(13.834289277321,23.961691914926,0.));
#280 = CARTESIAN_POINT('',(-6.917144638661,11.980845957463,0.));
#281 = CARTESIAN_POINT('',(-27.66857855464,3.38842361639E-15,0.));
#282 = CARTESIAN_POINT('',(-6.917144638661,-11.98084595746,0.));
#283 = CARTESIAN_POINT('',(13.834289277321,-23.96169191492,0.));
#284 = CARTESIAN_POINT('',(13.834289277321,0.,0.));
#285 = B_SPLINE_SURFACE_WITH_KNOTS('',1,1,(
    (#286,#287)
    ,(#288,#289
    )),.UNSPECIFIED.,.F.,.F.,.F.,(2,2),(2,2),(-20.,20.),(-20.,20.),
  .PIECEWISE_BEZIER_KNOTS.);
#286 = CARTESIAN_POINT('',(-27.66857855464,-27.66857855464,0.));
#287 = CARTESIAN_POINT('',(-27.66857855464,27.668578554643,0.));
#288 = CARTESIAN_POINT('',(27.668578554643,-27.66857855464,0.));
#289 = CARTESIAN_POINT('',(27.668578554643,27.668578554643,0.));
#290 = ADVANCED_FACE('',(#291),#301,.F.);
#291 = FACE_BOUND('',#292,.F.);
#292 = EDGE_LOOP('',(#293,#294,#299,#300));
#293 = ORIENTED_EDGE('',*,*,#251,.F.);
#294 = ORIENTED_EDGE('',*,*,#295,.F.);
#295 = EDGE_CURVE('',#275,#252,#296,.T.);
#296 = B_SPLINE_CURVE_WITH_KNOTS('',1,(#297,#298),.UNSPECIFIED.,.F.,.F.,
  (2,2),(0.,10.),.PIECEWISE_BEZIER_KNOTS.);
#297 = CARTESIAN_POINT('',(13.834289277321,-3.38842361639E-15,0.));
#298 = CARTESIAN_POINT('',(13.834289277321,-3.38842361639E-15,
    13.834289277321));
#299 = ORIENTED_EDGE('',*,*,#274,.T.);
#300 = ORIENTED_EDGE('',*,*,#295,.T.);
#301 = ( BOUNDED_SURFACE() B_SPLINE_SURFACE(2,1,(
    (#302,#303)
    ,(#304,#305)
    ,(#306,#307)
    ,(#308,#309)
    ,(#310,#311)
    ,(#312,#313)
,(#314,#315
    )),.UNSPECIFIED.,.T.,.F.,.F.) B_SPLINE_SURFACE_WITH_KNOTS((1,2,2,2,2
    ,1),(2,2),(-2.094395102393,0.,2.094395102393,4.188790204786,
    6.28318530718,8.377580409573),(0.,10.),.UNSPECIFIED.)
GEOMETRIC_REPRESENTATION_ITEM() RATIONAL_B_SPLINE_SURFACE((
    (1.,1.)
    ,(0.5,0.5)
    ,(1.,1.)
    ,(0.5,0.5)
    ,(1.,1.)
    ,(0.5,0.5)
,(1.,1.))) REPRESENTATION_ITEM('') SURFACE() );
#302 = CARTESIAN_POINT('',(13.834289277321,0.,0.));
#303 = CARTESIAN_POINT('',(13.834289277321,0.,13.834289277321));
#304 = CARTESIAN_POINT('',(13.834289277321,23.961691914926,0.));
#305 = CARTESIAN_POINT('',(13.834289277321,23.961691914926,
    13.834289277321));
#306 = CARTESIAN_POINT('',(-6.917144638661,11.980845957463,0.));
#307 = CARTESIAN_POINT('',(-6.917144638661,11.980845957463,
    13.834289277321));
#308 = CARTESIAN_POINT('',(-27.66857855464,3.38842361639E-15,0.));
#309 = CARTESIAN_POINT('',(-27.66857855464,3.38842361639E-15,
    13.834289277321));
#310 = CARTESIAN_POINT('',(-6.917144638661,-11.98084595746,0.));
#311 = CARTESIAN_POINT('',(-6.917144638661,-11.98084595746,
    13.834289277321));
#312 = CARTESIAN_POINT('',(13.834289277321,-23.96169191492,0.));
#313 = CARTESIAN_POINT('',(13.834289277321,-23.96169191492,
    13.834289277321));
#314 = CARTESIAN_POINT('',(13.834289277321,0.,0.));
#315 = CARTESIAN_POINT('',(13.834289277321,0.,13.834289277321));
#316 = ( GEOMETRIC_REPRESENTATION_CONTEXT(3)
GLOBAL_UNCERTAINTY_ASSIGNED_CONTEXT((#320)) GLOBAL_UNIT_ASSIGNED_CONTEXT
((#317,#318,#319)) REPRESENTATION_CONTEXT('Context #1',
  '3D Context with UNIT and UNCERTAINTY') );
#317 = ( LENGTH_UNIT() NAMED_UNIT(*) SI_UNIT(.MILLI.,.METRE.) );
#318 = ( NAMED_UNIT(*) PLANE_ANGLE_UNIT() SI_UNIT($,.RADIAN.) );
#319 = ( NAMED_UNIT(*) SI_UNIT($,.STERADIAN.) SOLID_ANGLE_UNIT() );
#320 = UNCERTAINTY_MEASURE_WITH_UNIT(LENGTH_MEASURE(2.E-07),#317,
  'distance_accuracy_value','confusion accuracy');
#321 = CONTEXT_DEPENDENT_SHAPE_REPRESENTATION(#322,#324);
#322 = ( REPRESENTATION_RELATIONSHIP('','',#193,#10)
REPRESENTATION_RELATIONSHIP_WITH_TRANSFORMATION(#323)
SHAPE_REPRESENTATION_RELATIONSHIP() );
#323 = ITEM_DEFINED_TRANSFORMATION('','',#11,#19);
#324 = PRODUCT_DEFINITION_SHAPE('Placement','Placement of an item',#325
  );
#325 = NEXT_ASSEMBLY_USAGE_OCCURRENCE('2','Body_2','',#5,#188,$);
#326 = PRODUCT_RELATED_PRODUCT_CATEGORY('part',$,(#190));
ENDSEC;
END-ISO-10303-21;
