ISO-10303-21;
HEADER;
FILE_DESCRIPTION(('FreeCAD Model'),'2;1');
FILE_NAME('Open CASCADE Shape Model','2026-09-08T23:30:57',('Author'),(
    ''),'Open CASCADE STEP processor 7.8','FreeCAD','Unknown');
FILE_SCHEMA(('AUTOMOTIVE_DESIGN { 1 0 10303 214 1 1 1 1 }'));
ENDSEC;
DATA;
#1 = APPLICATION_PROTOCOL_DEFINITION('international standard',
  'automotive_design',2000,#2);
#2 = APPLICATION_CONTEXT(
  'core data for automotive mechanical design processes');
#3 = SHAPE_DEFINITION_REPRESENTATION(#4,#10);
#4 = PRODUCT_DEFINITION_SHAPE('','',#5);
#5 = PRODUCT_DEFINITION('design','',#6,#9);
#6 = PRODUCT_DEFINITION_FORMATION('','',#7);
#7 = PRODUCT('ContactCanonical03CGenerator',
  'ContactCanonical03CGenerator','',(#8));
#8 = PRODUCT_CONTEXT('',#2,'mechanical');
#9 = PRODUCT_DEFINITION_CONTEXT('part definition',#2,'design');
#10 = SHAPE_REPRESENTATION('',(#11,#15,#19),#23);
#11 = AXIS2_PLACEMENT_3D('',#12,#13,#14);
#12 = CARTESIAN_POINT('',(0.,0.,0.));
#13 = DIRECTION('',(0.,0.,1.));
#14 = DIRECTION('',(1.,0.,-0.));
#15 = AXIS2_PLACEMENT_3D('',#16,#17,#18);
#16 = CARTESIAN_POINT('',(0.,0.,0.));
#17 = DIRECTION('',(0.,0.,1.));
#18 = DIRECTION('',(1.,0.,0.));
#19 = AXIS2_PLACEMENT_3D('',#20,#21,#22);
#20 = CARTESIAN_POINT('',(0.,0.,0.));
#21 = DIRECTION('',(0.,0.,1.));
#22 = DIRECTION('',(1.,0.,0.));
#23 = ( GEOMETRIC_REPRESENTATION_CONTEXT(3)
GLOBAL_UNCERTAINTY_ASSIGNED_CONTEXT((#27)) GLOBAL_UNIT_ASSIGNED_CONTEXT(
(#24,#25,#26)) REPRESENTATION_CONTEXT('Context #1',
  '3D Context with UNIT and UNCERTAINTY') );
#24 = ( LENGTH_UNIT() NAMED_UNIT(*) SI_UNIT(.MILLI.,.METRE.) );
#25 = ( NAMED_UNIT(*) PLANE_ANGLE_UNIT() SI_UNIT($,.RADIAN.) );
#26 = ( NAMED_UNIT(*) SI_UNIT($,.STERADIAN.) SOLID_ANGLE_UNIT() );
#27 = UNCERTAINTY_MEASURE_WITH_UNIT(LENGTH_MEASURE(2.E-07),#24,
  'distance_accuracy_value','confusion accuracy');
#28 = PRODUCT_RELATED_PRODUCT_CATEGORY('part',$,(#7));
#29 = SHAPE_DEFINITION_REPRESENTATION(#30,#36);
#30 = PRODUCT_DEFINITION_SHAPE('','',#31);
#31 = PRODUCT_DEFINITION('design','',#32,#35);
#32 = PRODUCT_DEFINITION_FORMATION('','',#33);
#33 = PRODUCT('Body_1','Body_1','',(#34));
#34 = PRODUCT_CONTEXT('',#2,'mechanical');
#35 = PRODUCT_DEFINITION_CONTEXT('part definition',#2,'design');
#36 = ADVANCED_BREP_SHAPE_REPRESENTATION('',(#11,#37),#175);
#37 = MANIFOLD_SOLID_BREP('',#38);
#38 = CLOSED_SHELL('',(#39,#75,#111,#131,#151,#163));
#39 = ADVANCED_FACE('',(#40),#70,.F.);
#40 = FACE_BOUND('',#41,.F.);
#41 = EDGE_LOOP('',(#42,#51,#58,#65));
#42 = ORIENTED_EDGE('',*,*,#43,.F.);
#43 = EDGE_CURVE('',#44,#46,#48,.T.);
#44 = VERTEX_POINT('',#45);
#45 = CARTESIAN_POINT('',(0.,0.,-6.681531047811));
#46 = VERTEX_POINT('',#47);
#47 = CARTESIAN_POINT('',(0.,0.,0.));
#48 = B_SPLINE_CURVE_WITH_KNOTS('',1,(#49,#50),.UNSPECIFIED.,.F.,.F.,(2,
    2),(0.,5.),.PIECEWISE_BEZIER_KNOTS.);
#49 = CARTESIAN_POINT('',(0.,0.,-6.681531047811));
#50 = CARTESIAN_POINT('',(0.,0.,0.));
#51 = ORIENTED_EDGE('',*,*,#52,.T.);
#52 = EDGE_CURVE('',#44,#53,#55,.T.);
#53 = VERTEX_POINT('',#54);
#54 = CARTESIAN_POINT('',(0.,53.452248382485,-6.681531047811));
#55 = B_SPLINE_CURVE_WITH_KNOTS('',1,(#56,#57),.UNSPECIFIED.,.F.,.F.,(2,
    2),(0.,40.),.PIECEWISE_BEZIER_KNOTS.);
#56 = CARTESIAN_POINT('',(0.,0.,-6.681531047811));
#57 = CARTESIAN_POINT('',(0.,53.452248382485,-6.681531047811));
#58 = ORIENTED_EDGE('',*,*,#59,.T.);
#59 = EDGE_CURVE('',#53,#60,#62,.T.);
#60 = VERTEX_POINT('',#61);
#61 = CARTESIAN_POINT('',(0.,53.452248382485,0.));
#62 = B_SPLINE_CURVE_WITH_KNOTS('',1,(#63,#64),.UNSPECIFIED.,.F.,.F.,(2,
    2),(0.,5.),.PIECEWISE_BEZIER_KNOTS.);
#63 = CARTESIAN_POINT('',(0.,53.452248382485,-6.681531047811));
#64 = CARTESIAN_POINT('',(0.,53.452248382485,0.));
#65 = ORIENTED_EDGE('',*,*,#66,.F.);
#66 = EDGE_CURVE('',#46,#60,#67,.T.);
#67 = B_SPLINE_CURVE_WITH_KNOTS('',1,(#68,#69),.UNSPECIFIED.,.F.,.F.,(2,
    2),(0.,40.),.PIECEWISE_BEZIER_KNOTS.);
#68 = CARTESIAN_POINT('',(0.,0.,0.));
#69 = CARTESIAN_POINT('',(0.,53.452248382485,0.));
#70 = B_SPLINE_SURFACE_WITH_KNOTS('',1,1,(
    (#71,#72)
    ,(#73,#74)),.UNSPECIFIED.,.F.,.F.,.F.,(2,2),(2,2),(0.,5.),(-40.,0.),
  .PIECEWISE_BEZIER_KNOTS.);
#71 = CARTESIAN_POINT('',(0.,53.452248382485,-6.681531047811));
#72 = CARTESIAN_POINT('',(0.,0.,-6.681531047811));
#73 = CARTESIAN_POINT('',(0.,53.452248382485,0.));
#74 = CARTESIAN_POINT('',(0.,0.,0.));
#75 = ADVANCED_FACE('',(#76),#106,.T.);
#76 = FACE_BOUND('',#77,.T.);
#77 = EDGE_LOOP('',(#78,#87,#94,#101));
#78 = ORIENTED_EDGE('',*,*,#79,.F.);
#79 = EDGE_CURVE('',#80,#82,#84,.T.);
#80 = VERTEX_POINT('',#81);
#81 = CARTESIAN_POINT('',(80.178372573727,0.,-6.681531047811));
#82 = VERTEX_POINT('',#83);
#83 = CARTESIAN_POINT('',(80.178372573727,0.,0.));
#84 = B_SPLINE_CURVE_WITH_KNOTS('',1,(#85,#86),.UNSPECIFIED.,.F.,.F.,(2,
    2),(0.,5.),.PIECEWISE_BEZIER_KNOTS.);
#85 = CARTESIAN_POINT('',(80.178372573727,0.,-6.681531047811));
#86 = CARTESIAN_POINT('',(80.178372573727,0.,0.));
#87 = ORIENTED_EDGE('',*,*,#88,.T.);
#88 = EDGE_CURVE('',#80,#89,#91,.T.);
#89 = VERTEX_POINT('',#90);
#90 = CARTESIAN_POINT('',(80.178372573727,53.452248382485,
    -6.681531047811));
#91 = B_SPLINE_CURVE_WITH_KNOTS('',1,(#92,#93),.UNSPECIFIED.,.F.,.F.,(2,
    2),(0.,40.),.PIECEWISE_BEZIER_KNOTS.);
#92 = CARTESIAN_POINT('',(80.178372573727,0.,-6.681531047811));
#93 = CARTESIAN_POINT('',(80.178372573727,53.452248382485,
    -6.681531047811));
#94 = ORIENTED_EDGE('',*,*,#95,.T.);
#95 = EDGE_CURVE('',#89,#96,#98,.T.);
#96 = VERTEX_POINT('',#97);
#97 = CARTESIAN_POINT('',(80.178372573727,53.452248382485,0.));
#98 = B_SPLINE_CURVE_WITH_KNOTS('',1,(#99,#100),.UNSPECIFIED.,.F.,.F.,(2
    ,2),(0.,5.),.PIECEWISE_BEZIER_KNOTS.);
#99 = CARTESIAN_POINT('',(80.178372573727,53.452248382485,
    -6.681531047811));
#100 = CARTESIAN_POINT('',(80.178372573727,53.452248382485,0.));
#101 = ORIENTED_EDGE('',*,*,#102,.F.);
#102 = EDGE_CURVE('',#82,#96,#103,.T.);
#103 = B_SPLINE_CURVE_WITH_KNOTS('',1,(#104,#105),.UNSPECIFIED.,.F.,.F.,
  (2,2),(0.,40.),.PIECEWISE_BEZIER_KNOTS.);
#104 = CARTESIAN_POINT('',(80.178372573727,0.,0.));
#105 = CARTESIAN_POINT('',(80.178372573727,53.452248382485,0.));
#106 = B_SPLINE_SURFACE_WITH_KNOTS('',1,1,(
    (#107,#108)
    ,(#109,#110
    )),.UNSPECIFIED.,.F.,.F.,.F.,(2,2),(2,2),(0.,5.),(-40.,0.),
  .PIECEWISE_BEZIER_KNOTS.);
#107 = CARTESIAN_POINT('',(80.178372573727,53.452248382485,
    -6.681531047811));
#108 = CARTESIAN_POINT('',(80.178372573727,0.,-6.681531047811));
#109 = CARTESIAN_POINT('',(80.178372573727,53.452248382485,0.));
#110 = CARTESIAN_POINT('',(80.178372573727,0.,0.));
#111 = ADVANCED_FACE('',(#112),#126,.F.);
#112 = FACE_BOUND('',#113,.F.);
#113 = EDGE_LOOP('',(#114,#119,#120,#125));
#114 = ORIENTED_EDGE('',*,*,#115,.F.);
#115 = EDGE_CURVE('',#44,#80,#116,.T.);
#116 = B_SPLINE_CURVE_WITH_KNOTS('',1,(#117,#118),.UNSPECIFIED.,.F.,.F.,
  (2,2),(0.,60.),.PIECEWISE_BEZIER_KNOTS.);
#117 = CARTESIAN_POINT('',(0.,0.,-6.681531047811));
#118 = CARTESIAN_POINT('',(80.178372573727,0.,-6.681531047811));
#119 = ORIENTED_EDGE('',*,*,#43,.T.);
#120 = ORIENTED_EDGE('',*,*,#121,.T.);
#121 = EDGE_CURVE('',#46,#82,#122,.T.);
#122 = B_SPLINE_CURVE_WITH_KNOTS('',1,(#123,#124),.UNSPECIFIED.,.F.,.F.,
  (2,2),(0.,60.),.PIECEWISE_BEZIER_KNOTS.);
#123 = CARTESIAN_POINT('',(0.,0.,0.));
#124 = CARTESIAN_POINT('',(80.178372573727,0.,0.));
#125 = ORIENTED_EDGE('',*,*,#79,.F.);
#126 = B_SPLINE_SURFACE_WITH_KNOTS('',1,1,(
    (#127,#128)
    ,(#129,#130
  )),.UNSPECIFIED.,.F.,.F.,.F.,(2,2),(2,2),(0.,5.),(0.,60.),
  .PIECEWISE_BEZIER_KNOTS.);
#127 = CARTESIAN_POINT('',(0.,0.,-6.681531047811));
#128 = CARTESIAN_POINT('',(80.178372573727,0.,-6.681531047811));
#129 = CARTESIAN_POINT('',(0.,0.,0.));
#130 = CARTESIAN_POINT('',(80.178372573727,0.,0.));
#131 = ADVANCED_FACE('',(#132),#146,.T.);
#132 = FACE_BOUND('',#133,.T.);
#133 = EDGE_LOOP('',(#134,#139,#140,#145));
#134 = ORIENTED_EDGE('',*,*,#135,.F.);
#135 = EDGE_CURVE('',#53,#89,#136,.T.);
#136 = B_SPLINE_CURVE_WITH_KNOTS('',1,(#137,#138),.UNSPECIFIED.,.F.,.F.,
  (2,2),(0.,60.),.PIECEWISE_BEZIER_KNOTS.);
#137 = CARTESIAN_POINT('',(0.,53.452248382485,-6.681531047811));
#138 = CARTESIAN_POINT('',(80.178372573727,53.452248382485,
    -6.681531047811));
#139 = ORIENTED_EDGE('',*,*,#59,.T.);
#140 = ORIENTED_EDGE('',*,*,#141,.T.);
#141 = EDGE_CURVE('',#60,#96,#142,.T.);
#142 = B_SPLINE_CURVE_WITH_KNOTS('',1,(#143,#144),.UNSPECIFIED.,.F.,.F.,
  (2,2),(0.,60.),.PIECEWISE_BEZIER_KNOTS.);
#143 = CARTESIAN_POINT('',(0.,53.452248382485,0.));
#144 = CARTESIAN_POINT('',(80.178372573727,53.452248382485,0.));
#145 = ORIENTED_EDGE('',*,*,#95,.F.);
#146 = B_SPLINE_SURFACE_WITH_KNOTS('',1,1,(
    (#147,#148)
    ,(#149,#150
  )),.UNSPECIFIED.,.F.,.F.,.F.,(2,2),(2,2),(0.,5.),(0.,60.),
  .PIECEWISE_BEZIER_KNOTS.);
#147 = CARTESIAN_POINT('',(0.,53.452248382485,-6.681531047811));
#148 = CARTESIAN_POINT('',(80.178372573727,53.452248382485,
    -6.681531047811));
#149 = CARTESIAN_POINT('',(0.,53.452248382485,0.));
#150 = CARTESIAN_POINT('',(80.178372573727,53.452248382485,0.));
#151 = ADVANCED_FACE('',(#152),#158,.F.);
#152 = FACE_BOUND('',#153,.F.);
#153 = EDGE_LOOP('',(#154,#155,#156,#157));
#154 = ORIENTED_EDGE('',*,*,#52,.F.);
#155 = ORIENTED_EDGE('',*,*,#115,.T.);
#156 = ORIENTED_EDGE('',*,*,#88,.T.);
#157 = ORIENTED_EDGE('',*,*,#135,.F.);
#158 = B_SPLINE_SURFACE_WITH_KNOTS('',1,1,(
    (#159,#160)
    ,(#161,#162
    )),.UNSPECIFIED.,.F.,.F.,.F.,(2,2),(2,2),(0.,60.),(0.,40.),
  .PIECEWISE_BEZIER_KNOTS.);
#159 = CARTESIAN_POINT('',(0.,0.,-6.681531047811));
#160 = CARTESIAN_POINT('',(0.,53.452248382485,-6.681531047811));
#161 = CARTESIAN_POINT('',(80.178372573727,0.,-6.681531047811));
#162 = CARTESIAN_POINT('',(80.178372573727,53.452248382485,
    -6.681531047811));
#163 = ADVANCED_FACE('',(#164),#170,.T.);
#164 = FACE_BOUND('',#165,.T.);
#165 = EDGE_LOOP('',(#166,#167,#168,#169));
#166 = ORIENTED_EDGE('',*,*,#66,.F.);
#167 = ORIENTED_EDGE('',*,*,#121,.T.);
#168 = ORIENTED_EDGE('',*,*,#102,.T.);
#169 = ORIENTED_EDGE('',*,*,#141,.F.);
#170 = B_SPLINE_SURFACE_WITH_KNOTS('',1,1,(
    (#171,#172)
    ,(#173,#174
    )),.UNSPECIFIED.,.F.,.F.,.F.,(2,2),(2,2),(0.,60.),(0.,40.),
  .PIECEWISE_BEZIER_KNOTS.);
#171 = CARTESIAN_POINT('',(0.,0.,0.));
#172 = CARTESIAN_POINT('',(0.,53.452248382485,0.));
#173 = CARTESIAN_POINT('',(80.178372573727,0.,0.));
#174 = CARTESIAN_POINT('',(80.178372573727,53.452248382485,0.));
#175 = ( GEOMETRIC_REPRESENTATION_CONTEXT(3)
GLOBAL_UNCERTAINTY_ASSIGNED_CONTEXT((#179)) GLOBAL_UNIT_ASSIGNED_CONTEXT
((#176,#177,#178)) REPRESENTATION_CONTEXT('Context #1',
  '3D Context with UNIT and UNCERTAINTY') );
#176 = ( LENGTH_UNIT() NAMED_UNIT(*) SI_UNIT(.MILLI.,.METRE.) );
#177 = ( NAMED_UNIT(*) PLANE_ANGLE_UNIT() SI_UNIT($,.RADIAN.) );
#178 = ( NAMED_UNIT(*) SI_UNIT($,.STERADIAN.) SOLID_ANGLE_UNIT() );
#179 = UNCERTAINTY_MEASURE_WITH_UNIT(LENGTH_MEASURE(2.E-07),#176,
  'distance_accuracy_value','confusion accuracy');
#180 = CONTEXT_DEPENDENT_SHAPE_REPRESENTATION(#181,#183);
#181 = ( REPRESENTATION_RELATIONSHIP('','',#36,#10)
REPRESENTATION_RELATIONSHIP_WITH_TRANSFORMATION(#182)
SHAPE_REPRESENTATION_RELATIONSHIP() );
#182 = ITEM_DEFINED_TRANSFORMATION('','',#11,#15);
#183 = PRODUCT_DEFINITION_SHAPE('Placement','Placement of an item',#184
  );
#184 = NEXT_ASSEMBLY_USAGE_OCCURRENCE('1','Body_1','',#5,#31,$);
#185 = PRODUCT_RELATED_PRODUCT_CATEGORY('part',$,(#33));
#186 = SHAPE_DEFINITION_REPRESENTATION(#187,#193);
#187 = PRODUCT_DEFINITION_SHAPE('','',#188);
#188 = PRODUCT_DEFINITION('design','',#189,#192);
#189 = PRODUCT_DEFINITION_FORMATION('','',#190);
#190 = PRODUCT('Body_2','Body_2','',(#191));
#191 = PRODUCT_CONTEXT('',#2,'mechanical');
#192 = PRODUCT_DEFINITION_CONTEXT('part definition',#2,'design');
#193 = ADVANCED_BREP_SHAPE_REPRESENTATION('',(#11,#194),#572);
#194 = MANIFOLD_SOLID_BREP('',#195);
#195 = CLOSED_SHELL('',(#196,#232,#260,#288,#332,#360,#382,#404,#448,
    #476,#498,#520,#536,#560));
#196 = ADVANCED_FACE('',(#197),#227,.T.);
#197 = FACE_BOUND('',#198,.T.);
#198 = EDGE_LOOP('',(#199,#208,#215,#222));
#199 = ORIENTED_EDGE('',*,*,#200,.F.);
#200 = EDGE_CURVE('',#201,#203,#205,.T.);
#201 = VERTEX_POINT('',#202);
#202 = CARTESIAN_POINT('',(8.017837257373,37.416573867739,0.));
#203 = VERTEX_POINT('',#204);
#204 = CARTESIAN_POINT('',(24.053511772118,37.416573867739,0.));
#205 = B_SPLINE_CURVE_WITH_KNOTS('',1,(#206,#207),.UNSPECIFIED.,.F.,.F.,
  (2,2),(0.,12.),.PIECEWISE_BEZIER_KNOTS.);
#206 = CARTESIAN_POINT('',(8.017837257373,37.416573867739,0.));
#207 = CARTESIAN_POINT('',(24.053511772118,37.416573867739,0.));
#208 = ORIENTED_EDGE('',*,*,#209,.T.);
#209 = EDGE_CURVE('',#201,#210,#212,.T.);
#210 = VERTEX_POINT('',#211);
#211 = CARTESIAN_POINT('',(8.017837257373,37.416573867739,
    20.044593143432));
#212 = B_SPLINE_CURVE_WITH_KNOTS('',1,(#213,#214),.UNSPECIFIED.,.F.,.F.,
  (2,2),(0.,15.),.PIECEWISE_BEZIER_KNOTS.);
#213 = CARTESIAN_POINT('',(8.017837257373,37.416573867739,0.));
#214 = CARTESIAN_POINT('',(8.017837257373,37.416573867739,
    20.044593143432));
#215 = ORIENTED_EDGE('',*,*,#216,.T.);
#216 = EDGE_CURVE('',#210,#217,#219,.T.);
#217 = VERTEX_POINT('',#218);
#218 = CARTESIAN_POINT('',(24.053511772118,37.416573867739,
    20.044593143432));
#219 = B_SPLINE_CURVE_WITH_KNOTS('',1,(#220,#221),.UNSPECIFIED.,.F.,.F.,
  (2,2),(0.,12.),.PIECEWISE_BEZIER_KNOTS.);
#220 = CARTESIAN_POINT('',(8.017837257373,37.416573867739,
    20.044593143432));
#221 = CARTESIAN_POINT('',(24.053511772118,37.416573867739,
    20.044593143432));
#222 = ORIENTED_EDGE('',*,*,#223,.F.);
#223 = EDGE_CURVE('',#203,#217,#224,.T.);
#224 = B_SPLINE_CURVE_WITH_KNOTS('',1,(#225,#226),.UNSPECIFIED.,.F.,.F.,
  (2,2),(0.,15.),.PIECEWISE_BEZIER_KNOTS.);
#225 = CARTESIAN_POINT('',(24.053511772118,37.416573867739,0.));
#226 = CARTESIAN_POINT('',(24.053511772118,37.416573867739,
    20.044593143432));
#227 = B_SPLINE_SURFACE_WITH_KNOTS('',1,1,(
    (#228,#229)
    ,(#230,#231
    )),.UNSPECIFIED.,.F.,.F.,.F.,(2,2),(2,2),(0.,15.),(0.,12.),
  .PIECEWISE_BEZIER_KNOTS.);
#228 = CARTESIAN_POINT('',(8.017837257373,37.416573867739,0.));
#229 = CARTESIAN_POINT('',(24.053511772118,37.416573867739,0.));
#230 = CARTESIAN_POINT('',(8.017837257373,37.416573867739,
    20.044593143432));
#231 = CARTESIAN_POINT('',(24.053511772118,37.416573867739,
    20.044593143432));
#232 = ADVANCED_FACE('',(#233),#255,.F.);
#233 = FACE_BOUND('',#234,.F.);
#234 = EDGE_LOOP('',(#235,#242,#249,#254));
#235 = ORIENTED_EDGE('',*,*,#236,.F.);
#236 = EDGE_CURVE('',#237,#201,#239,.T.);
#237 = VERTEX_POINT('',#238);
#238 = CARTESIAN_POINT('',(8.017837257373,16.035674514745,0.));
#239 = B_SPLINE_CURVE_WITH_KNOTS('',1,(#240,#241),.UNSPECIFIED.,.F.,.F.,
  (2,2),(0.,16.),.PIECEWISE_BEZIER_KNOTS.);
#240 = CARTESIAN_POINT('',(8.017837257373,16.035674514745,0.));
#241 = CARTESIAN_POINT('',(8.017837257373,37.416573867739,0.));
#242 = ORIENTED_EDGE('',*,*,#243,.T.);
#243 = EDGE_CURVE('',#237,#244,#246,.T.);
#244 = VERTEX_POINT('',#245);
#245 = CARTESIAN_POINT('',(24.053511772118,16.035674514745,0.));
#246 = B_SPLINE_CURVE_WITH_KNOTS('',1,(#247,#248),.UNSPECIFIED.,.F.,.F.,
  (2,2),(0.,12.),.PIECEWISE_BEZIER_KNOTS.);
#247 = CARTESIAN_POINT('',(8.017837257373,16.035674514745,0.));
#248 = CARTESIAN_POINT('',(24.053511772118,16.035674514745,0.));
#249 = ORIENTED_EDGE('',*,*,#250,.T.);
#250 = EDGE_CURVE('',#244,#203,#251,.T.);
#251 = B_SPLINE_CURVE_WITH_KNOTS('',1,(#252,#253),.UNSPECIFIED.,.F.,.F.,
  (2,2),(0.,16.),.PIECEWISE_BEZIER_KNOTS.);
#252 = CARTESIAN_POINT('',(24.053511772118,16.035674514745,0.));
#253 = CARTESIAN_POINT('',(24.053511772118,37.416573867739,0.));
#254 = ORIENTED_EDGE('',*,*,#200,.F.);
#255 = B_SPLINE_SURFACE_WITH_KNOTS('',1,1,(
    (#256,#257)
    ,(#258,#259
    )),.UNSPECIFIED.,.F.,.F.,.F.,(2,2),(2,2),(0.,12.),(0.,16.),
  .PIECEWISE_BEZIER_KNOTS.);
#256 = CARTESIAN_POINT('',(8.017837257373,16.035674514745,0.));
#257 = CARTESIAN_POINT('',(8.017837257373,37.416573867739,0.));
#258 = CARTESIAN_POINT('',(24.053511772118,16.035674514745,0.));
#259 = CARTESIAN_POINT('',(24.053511772118,37.416573867739,0.));
#260 = ADVANCED_FACE('',(#261),#283,.F.);
#261 = FACE_BOUND('',#262,.F.);
#262 = EDGE_LOOP('',(#263,#264,#271,#278));
#263 = ORIENTED_EDGE('',*,*,#243,.F.);
#264 = ORIENTED_EDGE('',*,*,#265,.T.);
#265 = EDGE_CURVE('',#237,#266,#268,.T.);
#266 = VERTEX_POINT('',#267);
#267 = CARTESIAN_POINT('',(8.017837257373,16.035674514745,
    20.044593143432));
#268 = B_SPLINE_CURVE_WITH_KNOTS('',1,(#269,#270),.UNSPECIFIED.,.F.,.F.,
  (2,2),(0.,15.),.PIECEWISE_BEZIER_KNOTS.);
#269 = CARTESIAN_POINT('',(8.017837257373,16.035674514745,0.));
#270 = CARTESIAN_POINT('',(8.017837257373,16.035674514745,
    20.044593143432));
#271 = ORIENTED_EDGE('',*,*,#272,.T.);
#272 = EDGE_CURVE('',#266,#273,#275,.T.);
#273 = VERTEX_POINT('',#274);
#274 = CARTESIAN_POINT('',(24.053511772118,16.035674514745,
    20.044593143432));
#275 = B_SPLINE_CURVE_WITH_KNOTS('',1,(#276,#277),.UNSPECIFIED.,.F.,.F.,
  (2,2),(0.,12.),.PIECEWISE_BEZIER_KNOTS.);
#276 = CARTESIAN_POINT('',(8.017837257373,16.035674514745,
    20.044593143432));
#277 = CARTESIAN_POINT('',(24.053511772118,16.035674514745,
    20.044593143432));
#278 = ORIENTED_EDGE('',*,*,#279,.F.);
#279 = EDGE_CURVE('',#244,#273,#280,.T.);
#280 = B_SPLINE_CURVE_WITH_KNOTS('',1,(#281,#282),.UNSPECIFIED.,.F.,.F.,
  (2,2),(0.,15.),.PIECEWISE_BEZIER_KNOTS.);
#281 = CARTESIAN_POINT('',(24.053511772118,16.035674514745,0.));
#282 = CARTESIAN_POINT('',(24.053511772118,16.035674514745,
    20.044593143432));
#283 = B_SPLINE_SURFACE_WITH_KNOTS('',1,1,(
    (#284,#285)
    ,(#286,#287
    )),.UNSPECIFIED.,.F.,.F.,.F.,(2,2),(2,2),(0.,15.),(0.,12.),
  .PIECEWISE_BEZIER_KNOTS.);
#284 = CARTESIAN_POINT('',(8.017837257373,16.035674514745,0.));
#285 = CARTESIAN_POINT('',(24.053511772118,16.035674514745,0.));
#286 = CARTESIAN_POINT('',(8.017837257373,16.035674514745,
    20.044593143432));
#287 = CARTESIAN_POINT('',(24.053511772118,16.035674514745,
    20.044593143432));
#288 = ADVANCED_FACE('',(#289),#327,.T.);
#289 = FACE_BOUND('',#290,.T.);
#290 = EDGE_LOOP('',(#291,#298,#299,#300,#301,#308,#315,#322));
#291 = ORIENTED_EDGE('',*,*,#292,.F.);
#292 = EDGE_CURVE('',#273,#293,#295,.T.);
#293 = VERTEX_POINT('',#294);
#294 = CARTESIAN_POINT('',(24.053511772118,21.380899352994,
    20.044593143432));
#295 = B_SPLINE_CURVE_WITH_KNOTS('',1,(#296,#297),.UNSPECIFIED.,.F.,.F.,
  (2,2),(0.,4.),.PIECEWISE_BEZIER_KNOTS.);
#296 = CARTESIAN_POINT('',(24.053511772118,16.035674514745,
    20.044593143432));
#297 = CARTESIAN_POINT('',(24.053511772118,21.380899352994,
    20.044593143432));
#298 = ORIENTED_EDGE('',*,*,#279,.F.);
#299 = ORIENTED_EDGE('',*,*,#250,.T.);
#300 = ORIENTED_EDGE('',*,*,#223,.T.);
#301 = ORIENTED_EDGE('',*,*,#302,.F.);
#302 = EDGE_CURVE('',#303,#217,#305,.T.);
#303 = VERTEX_POINT('',#304);
#304 = CARTESIAN_POINT('',(24.053511772118,32.071349029491,
    20.044593143432));
#305 = B_SPLINE_CURVE_WITH_KNOTS('',1,(#306,#307),.UNSPECIFIED.,.F.,.F.,
  (2,2),(12.,16.),.PIECEWISE_BEZIER_KNOTS.);
#306 = CARTESIAN_POINT('',(24.053511772118,32.071349029491,
    20.044593143432));
#307 = CARTESIAN_POINT('',(24.053511772118,37.416573867739,
    20.044593143432));
#308 = ORIENTED_EDGE('',*,*,#309,.F.);
#309 = EDGE_CURVE('',#310,#303,#312,.T.);
#310 = VERTEX_POINT('',#311);
#311 = CARTESIAN_POINT('',(24.053511772118,32.071349029491,
    13.363062095621));
#312 = B_SPLINE_CURVE_WITH_KNOTS('',1,(#313,#314),.UNSPECIFIED.,.F.,.F.,
  (2,2),(5.,10.),.PIECEWISE_BEZIER_KNOTS.);
#313 = CARTESIAN_POINT('',(24.053511772118,32.071349029491,
    13.363062095621));
#314 = CARTESIAN_POINT('',(24.053511772118,32.071349029491,
    20.044593143432));
#315 = ORIENTED_EDGE('',*,*,#316,.T.);
#316 = EDGE_CURVE('',#310,#317,#319,.T.);
#317 = VERTEX_POINT('',#318);
#318 = CARTESIAN_POINT('',(24.053511772118,21.380899352994,
    13.363062095621));
#319 = B_SPLINE_CURVE_WITH_KNOTS('',1,(#320,#321),.UNSPECIFIED.,.F.,.F.,
  (2,2),(-10.,-2.),.PIECEWISE_BEZIER_KNOTS.);
#320 = CARTESIAN_POINT('',(24.053511772118,32.071349029491,
    13.363062095621));
#321 = CARTESIAN_POINT('',(24.053511772118,21.380899352994,
    13.363062095621));
#322 = ORIENTED_EDGE('',*,*,#323,.T.);
#323 = EDGE_CURVE('',#317,#293,#324,.T.);
#324 = B_SPLINE_CURVE_WITH_KNOTS('',1,(#325,#326),.UNSPECIFIED.,.F.,.F.,
  (2,2),(5.,10.),.PIECEWISE_BEZIER_KNOTS.);
#325 = CARTESIAN_POINT('',(24.053511772118,21.380899352994,
    13.363062095621));
#326 = CARTESIAN_POINT('',(24.053511772118,21.380899352994,
    20.044593143432));
#327 = B_SPLINE_SURFACE_WITH_KNOTS('',1,1,(
    (#328,#329)
    ,(#330,#331
    )),.UNSPECIFIED.,.F.,.F.,.F.,(2,2),(2,2),(0.,15.),(-16.,0.),
  .PIECEWISE_BEZIER_KNOTS.);
#328 = CARTESIAN_POINT('',(24.053511772118,37.416573867739,0.));
#329 = CARTESIAN_POINT('',(24.053511772118,16.035674514745,0.));
#330 = CARTESIAN_POINT('',(24.053511772118,37.416573867739,
    20.044593143432));
#331 = CARTESIAN_POINT('',(24.053511772118,16.035674514745,
    20.044593143432));
#332 = ADVANCED_FACE('',(#333),#355,.F.);
#333 = FACE_BOUND('',#334,.F.);
#334 = EDGE_LOOP('',(#335,#342,#343,#350));
#335 = ORIENTED_EDGE('',*,*,#336,.F.);
#336 = EDGE_CURVE('',#317,#337,#339,.T.);
#337 = VERTEX_POINT('',#338);
#338 = CARTESIAN_POINT('',(56.124860801609,21.380899352994,
    13.363062095621));
#339 = B_SPLINE_CURVE_WITH_KNOTS('',1,(#340,#341),.UNSPECIFIED.,.F.,.F.,
  (2,2),(12.,36.),.PIECEWISE_BEZIER_KNOTS.);
#340 = CARTESIAN_POINT('',(24.053511772118,21.380899352994,
    13.363062095621));
#341 = CARTESIAN_POINT('',(56.124860801609,21.380899352994,
    13.363062095621));
#342 = ORIENTED_EDGE('',*,*,#323,.T.);
#343 = ORIENTED_EDGE('',*,*,#344,.T.);
#344 = EDGE_CURVE('',#293,#345,#347,.T.);
#345 = VERTEX_POINT('',#346);
#346 = CARTESIAN_POINT('',(56.124860801609,21.380899352994,
    20.044593143432));
#347 = B_SPLINE_CURVE_WITH_KNOTS('',1,(#348,#349),.UNSPECIFIED.,.F.,.F.,
  (2,2),(12.,36.),.PIECEWISE_BEZIER_KNOTS.);
#348 = CARTESIAN_POINT('',(24.053511772118,21.380899352994,
    20.044593143432));
#349 = CARTESIAN_POINT('',(56.124860801609,21.380899352994,
    20.044593143432));
#350 = ORIENTED_EDGE('',*,*,#351,.F.);
#351 = EDGE_CURVE('',#337,#345,#352,.T.);
#352 = B_SPLINE_CURVE_WITH_KNOTS('',1,(#353,#354),.UNSPECIFIED.,.F.,.F.,
  (2,2),(5.,10.),.PIECEWISE_BEZIER_KNOTS.);
#353 = CARTESIAN_POINT('',(56.124860801609,21.380899352994,
    13.363062095621));
#354 = CARTESIAN_POINT('',(56.124860801609,21.380899352994,
    20.044593143432));
#355 = B_SPLINE_SURFACE_WITH_KNOTS('',1,1,(
    (#356,#357)
    ,(#358,#359
    )),.UNSPECIFIED.,.F.,.F.,.F.,(2,2),(2,2),(0.,5.),(12.,36.),
  .PIECEWISE_BEZIER_KNOTS.);
#356 = CARTESIAN_POINT('',(24.053511772118,21.380899352994,
    13.363062095621));
#357 = CARTESIAN_POINT('',(56.124860801609,21.380899352994,
    13.363062095621));
#358 = CARTESIAN_POINT('',(24.053511772118,21.380899352994,
    20.044593143432));
#359 = CARTESIAN_POINT('',(56.124860801609,21.380899352994,
    20.044593143432));
#360 = ADVANCED_FACE('',(#361),#377,.F.);
#361 = FACE_BOUND('',#362,.F.);
#362 = EDGE_LOOP('',(#363,#364,#365,#372));
#363 = ORIENTED_EDGE('',*,*,#316,.T.);
#364 = ORIENTED_EDGE('',*,*,#336,.T.);
#365 = ORIENTED_EDGE('',*,*,#366,.F.);
#366 = EDGE_CURVE('',#367,#337,#369,.T.);
#367 = VERTEX_POINT('',#368);
#368 = CARTESIAN_POINT('',(56.124860801609,32.071349029491,
    13.363062095621));
#369 = B_SPLINE_CURVE_WITH_KNOTS('',1,(#370,#371),.UNSPECIFIED.,.F.,.F.,
  (2,2),(-10.,-2.),.PIECEWISE_BEZIER_KNOTS.);
#370 = CARTESIAN_POINT('',(56.124860801609,32.071349029491,
    13.363062095621));
#371 = CARTESIAN_POINT('',(56.124860801609,21.380899352994,
    13.363062095621));
#372 = ORIENTED_EDGE('',*,*,#373,.F.);
#373 = EDGE_CURVE('',#310,#367,#374,.T.);
#374 = B_SPLINE_CURVE_WITH_KNOTS('',1,(#375,#376),.UNSPECIFIED.,.F.,.F.,
  (2,2),(12.,36.),.PIECEWISE_BEZIER_KNOTS.);
#375 = CARTESIAN_POINT('',(24.053511772118,32.071349029491,
    13.363062095621));
#376 = CARTESIAN_POINT('',(56.124860801609,32.071349029491,
    13.363062095621));
#377 = B_SPLINE_SURFACE_WITH_KNOTS('',1,1,(
    (#378,#379)
    ,(#380,#381
    )),.UNSPECIFIED.,.F.,.F.,.F.,(2,2),(2,2),(12.,36.),(0.,8.),
  .PIECEWISE_BEZIER_KNOTS.);
#378 = CARTESIAN_POINT('',(24.053511772118,21.380899352994,
    13.363062095621));
#379 = CARTESIAN_POINT('',(24.053511772118,32.071349029491,
    13.363062095621));
#380 = CARTESIAN_POINT('',(56.124860801609,21.380899352994,
    13.363062095621));
#381 = CARTESIAN_POINT('',(56.124860801609,32.071349029491,
    13.363062095621));
#382 = ADVANCED_FACE('',(#383),#399,.T.);
#383 = FACE_BOUND('',#384,.T.);
#384 = EDGE_LOOP('',(#385,#386,#387,#394));
#385 = ORIENTED_EDGE('',*,*,#373,.F.);
#386 = ORIENTED_EDGE('',*,*,#309,.T.);
#387 = ORIENTED_EDGE('',*,*,#388,.T.);
#388 = EDGE_CURVE('',#303,#389,#391,.T.);
#389 = VERTEX_POINT('',#390);
#390 = CARTESIAN_POINT('',(56.124860801609,32.071349029491,
    20.044593143432));
#391 = B_SPLINE_CURVE_WITH_KNOTS('',1,(#392,#393),.UNSPECIFIED.,.F.,.F.,
  (2,2),(12.,36.),.PIECEWISE_BEZIER_KNOTS.);
#392 = CARTESIAN_POINT('',(24.053511772118,32.071349029491,
    20.044593143432));
#393 = CARTESIAN_POINT('',(56.124860801609,32.071349029491,
    20.044593143432));
#394 = ORIENTED_EDGE('',*,*,#395,.F.);
#395 = EDGE_CURVE('',#367,#389,#396,.T.);
#396 = B_SPLINE_CURVE_WITH_KNOTS('',1,(#397,#398),.UNSPECIFIED.,.F.,.F.,
  (2,2),(5.,10.),.PIECEWISE_BEZIER_KNOTS.);
#397 = CARTESIAN_POINT('',(56.124860801609,32.071349029491,
    13.363062095621));
#398 = CARTESIAN_POINT('',(56.124860801609,32.071349029491,
    20.044593143432));
#399 = B_SPLINE_SURFACE_WITH_KNOTS('',1,1,(
    (#400,#401)
    ,(#402,#403
    )),.UNSPECIFIED.,.F.,.F.,.F.,(2,2),(2,2),(0.,5.),(12.,36.),
  .PIECEWISE_BEZIER_KNOTS.);
#400 = CARTESIAN_POINT('',(24.053511772118,32.071349029491,
    13.363062095621));
#401 = CARTESIAN_POINT('',(56.124860801609,32.071349029491,
    13.363062095621));
#402 = CARTESIAN_POINT('',(24.053511772118,32.071349029491,
    20.044593143432));
#403 = CARTESIAN_POINT('',(56.124860801609,32.071349029491,
    20.044593143432));
#404 = ADVANCED_FACE('',(#405),#443,.F.);
#405 = FACE_BOUND('',#406,.F.);
#406 = EDGE_LOOP('',(#407,#414,#421,#428,#435,#440,#441,#442));
#407 = ORIENTED_EDGE('',*,*,#408,.F.);
#408 = EDGE_CURVE('',#409,#345,#411,.T.);
#409 = VERTEX_POINT('',#410);
#410 = CARTESIAN_POINT('',(56.124860801609,16.035674514745,
    20.044593143432));
#411 = B_SPLINE_CURVE_WITH_KNOTS('',1,(#412,#413),.UNSPECIFIED.,.F.,.F.,
  (2,2),(0.,4.),.PIECEWISE_BEZIER_KNOTS.);
#412 = CARTESIAN_POINT('',(56.124860801609,16.035674514745,
    20.044593143432));
#413 = CARTESIAN_POINT('',(56.124860801609,21.380899352994,
    20.044593143432));
#414 = ORIENTED_EDGE('',*,*,#415,.F.);
#415 = EDGE_CURVE('',#416,#409,#418,.T.);
#416 = VERTEX_POINT('',#417);
#417 = CARTESIAN_POINT('',(56.124860801609,16.035674514745,0.));
#418 = B_SPLINE_CURVE_WITH_KNOTS('',1,(#419,#420),.UNSPECIFIED.,.F.,.F.,
  (2,2),(0.,15.),.PIECEWISE_BEZIER_KNOTS.);
#419 = CARTESIAN_POINT('',(56.124860801609,16.035674514745,0.));
#420 = CARTESIAN_POINT('',(56.124860801609,16.035674514745,
    20.044593143432));
#421 = ORIENTED_EDGE('',*,*,#422,.T.);
#422 = EDGE_CURVE('',#416,#423,#425,.T.);
#423 = VERTEX_POINT('',#424);
#424 = CARTESIAN_POINT('',(56.124860801609,37.416573867739,0.));
#425 = B_SPLINE_CURVE_WITH_KNOTS('',1,(#426,#427),.UNSPECIFIED.,.F.,.F.,
  (2,2),(0.,16.),.PIECEWISE_BEZIER_KNOTS.);
#426 = CARTESIAN_POINT('',(56.124860801609,16.035674514745,0.));
#427 = CARTESIAN_POINT('',(56.124860801609,37.416573867739,0.));
#428 = ORIENTED_EDGE('',*,*,#429,.T.);
#429 = EDGE_CURVE('',#423,#430,#432,.T.);
#430 = VERTEX_POINT('',#431);
#431 = CARTESIAN_POINT('',(56.124860801609,37.416573867739,
    20.044593143432));
#432 = B_SPLINE_CURVE_WITH_KNOTS('',1,(#433,#434),.UNSPECIFIED.,.F.,.F.,
  (2,2),(0.,15.),.PIECEWISE_BEZIER_KNOTS.);
#433 = CARTESIAN_POINT('',(56.124860801609,37.416573867739,0.));
#434 = CARTESIAN_POINT('',(56.124860801609,37.416573867739,
    20.044593143432));
#435 = ORIENTED_EDGE('',*,*,#436,.F.);
#436 = EDGE_CURVE('',#389,#430,#437,.T.);
#437 = B_SPLINE_CURVE_WITH_KNOTS('',1,(#438,#439),.UNSPECIFIED.,.F.,.F.,
  (2,2),(12.,16.),.PIECEWISE_BEZIER_KNOTS.);
#438 = CARTESIAN_POINT('',(56.124860801609,32.071349029491,
    20.044593143432));
#439 = CARTESIAN_POINT('',(56.124860801609,37.416573867739,
    20.044593143432));
#440 = ORIENTED_EDGE('',*,*,#395,.F.);
#441 = ORIENTED_EDGE('',*,*,#366,.T.);
#442 = ORIENTED_EDGE('',*,*,#351,.T.);
#443 = B_SPLINE_SURFACE_WITH_KNOTS('',1,1,(
    (#444,#445)
    ,(#446,#447
    )),.UNSPECIFIED.,.F.,.F.,.F.,(2,2),(2,2),(0.,15.),(-16.,0.),
  .PIECEWISE_BEZIER_KNOTS.);
#444 = CARTESIAN_POINT('',(56.124860801609,37.416573867739,0.));
#445 = CARTESIAN_POINT('',(56.124860801609,16.035674514745,0.));
#446 = CARTESIAN_POINT('',(56.124860801609,37.416573867739,
    20.044593143432));
#447 = CARTESIAN_POINT('',(56.124860801609,16.035674514745,
    20.044593143432));
#448 = ADVANCED_FACE('',(#449),#471,.T.);
#449 = FACE_BOUND('',#450,.T.);
#450 = EDGE_LOOP('',(#451,#458,#459,#466));
#451 = ORIENTED_EDGE('',*,*,#452,.F.);
#452 = EDGE_CURVE('',#423,#453,#455,.T.);
#453 = VERTEX_POINT('',#454);
#454 = CARTESIAN_POINT('',(72.160535316355,37.416573867739,0.));
#455 = B_SPLINE_CURVE_WITH_KNOTS('',1,(#456,#457),.UNSPECIFIED.,.F.,.F.,
  (2,2),(0.,12.),.PIECEWISE_BEZIER_KNOTS.);
#456 = CARTESIAN_POINT('',(56.124860801609,37.416573867739,0.));
#457 = CARTESIAN_POINT('',(72.160535316355,37.416573867739,0.));
#458 = ORIENTED_EDGE('',*,*,#429,.T.);
#459 = ORIENTED_EDGE('',*,*,#460,.T.);
#460 = EDGE_CURVE('',#430,#461,#463,.T.);
#461 = VERTEX_POINT('',#462);
#462 = CARTESIAN_POINT('',(72.160535316355,37.416573867739,
    20.044593143432));
#463 = B_SPLINE_CURVE_WITH_KNOTS('',1,(#464,#465),.UNSPECIFIED.,.F.,.F.,
  (2,2),(0.,12.),.PIECEWISE_BEZIER_KNOTS.);
#464 = CARTESIAN_POINT('',(56.124860801609,37.416573867739,
    20.044593143432));
#465 = CARTESIAN_POINT('',(72.160535316355,37.416573867739,
    20.044593143432));
#466 = ORIENTED_EDGE('',*,*,#467,.F.);
#467 = EDGE_CURVE('',#453,#461,#468,.T.);
#468 = B_SPLINE_CURVE_WITH_KNOTS('',1,(#469,#470),.UNSPECIFIED.,.F.,.F.,
  (2,2),(0.,15.),.PIECEWISE_BEZIER_KNOTS.);
#469 = CARTESIAN_POINT('',(72.160535316355,37.416573867739,0.));
#470 = CARTESIAN_POINT('',(72.160535316355,37.416573867739,
    20.044593143432));
#471 = B_SPLINE_SURFACE_WITH_KNOTS('',1,1,(
    (#472,#473)
    ,(#474,#475
    )),.UNSPECIFIED.,.F.,.F.,.F.,(2,2),(2,2),(0.,15.),(0.,12.),
  .PIECEWISE_BEZIER_KNOTS.);
#472 = CARTESIAN_POINT('',(56.124860801609,37.416573867739,0.));
#473 = CARTESIAN_POINT('',(72.160535316355,37.416573867739,0.));
#474 = CARTESIAN_POINT('',(56.124860801609,37.416573867739,
    20.044593143432));
#475 = CARTESIAN_POINT('',(72.160535316355,37.416573867739,
    20.044593143432));
#476 = ADVANCED_FACE('',(#477),#493,.F.);
#477 = FACE_BOUND('',#478,.F.);
#478 = EDGE_LOOP('',(#479,#480,#487,#492));
#479 = ORIENTED_EDGE('',*,*,#422,.F.);
#480 = ORIENTED_EDGE('',*,*,#481,.T.);
#481 = EDGE_CURVE('',#416,#482,#484,.T.);
#482 = VERTEX_POINT('',#483);
#483 = CARTESIAN_POINT('',(72.160535316355,16.035674514745,0.));
#484 = B_SPLINE_CURVE_WITH_KNOTS('',1,(#485,#486),.UNSPECIFIED.,.F.,.F.,
  (2,2),(0.,12.),.PIECEWISE_BEZIER_KNOTS.);
#485 = CARTESIAN_POINT('',(56.124860801609,16.035674514745,0.));
#486 = CARTESIAN_POINT('',(72.160535316355,16.035674514745,0.));
#487 = ORIENTED_EDGE('',*,*,#488,.T.);
#488 = EDGE_CURVE('',#482,#453,#489,.T.);
#489 = B_SPLINE_CURVE_WITH_KNOTS('',1,(#490,#491),.UNSPECIFIED.,.F.,.F.,
  (2,2),(0.,16.),.PIECEWISE_BEZIER_KNOTS.);
#490 = CARTESIAN_POINT('',(72.160535316355,16.035674514745,0.));
#491 = CARTESIAN_POINT('',(72.160535316355,37.416573867739,0.));
#492 = ORIENTED_EDGE('',*,*,#452,.F.);
#493 = B_SPLINE_SURFACE_WITH_KNOTS('',1,1,(
    (#494,#495)
    ,(#496,#497
    )),.UNSPECIFIED.,.F.,.F.,.F.,(2,2),(2,2),(0.,12.),(0.,16.),
  .PIECEWISE_BEZIER_KNOTS.);
#494 = CARTESIAN_POINT('',(56.124860801609,16.035674514745,0.));
#495 = CARTESIAN_POINT('',(56.124860801609,37.416573867739,0.));
#496 = CARTESIAN_POINT('',(72.160535316355,16.035674514745,0.));
#497 = CARTESIAN_POINT('',(72.160535316355,37.416573867739,0.));
#498 = ADVANCED_FACE('',(#499),#515,.F.);
#499 = FACE_BOUND('',#500,.F.);
#500 = EDGE_LOOP('',(#501,#502,#503,#510));
#501 = ORIENTED_EDGE('',*,*,#481,.F.);
#502 = ORIENTED_EDGE('',*,*,#415,.T.);
#503 = ORIENTED_EDGE('',*,*,#504,.T.);
#504 = EDGE_CURVE('',#409,#505,#507,.T.);
#505 = VERTEX_POINT('',#506);
#506 = CARTESIAN_POINT('',(72.160535316355,16.035674514745,
    20.044593143432));
#507 = B_SPLINE_CURVE_WITH_KNOTS('',1,(#508,#509),.UNSPECIFIED.,.F.,.F.,
  (2,2),(0.,12.),.PIECEWISE_BEZIER_KNOTS.);
#508 = CARTESIAN_POINT('',(56.124860801609,16.035674514745,
    20.044593143432));
#509 = CARTESIAN_POINT('',(72.160535316355,16.035674514745,
    20.044593143432));
#510 = ORIENTED_EDGE('',*,*,#511,.F.);
#511 = EDGE_CURVE('',#482,#505,#512,.T.);
#512 = B_SPLINE_CURVE_WITH_KNOTS('',1,(#513,#514),.UNSPECIFIED.,.F.,.F.,
  (2,2),(0.,15.),.PIECEWISE_BEZIER_KNOTS.);
#513 = CARTESIAN_POINT('',(72.160535316355,16.035674514745,0.));
#514 = CARTESIAN_POINT('',(72.160535316355,16.035674514745,
    20.044593143432));
#515 = B_SPLINE_SURFACE_WITH_KNOTS('',1,1,(
    (#516,#517)
    ,(#518,#519
    )),.UNSPECIFIED.,.F.,.F.,.F.,(2,2),(2,2),(0.,15.),(0.,12.),
  .PIECEWISE_BEZIER_KNOTS.);
#516 = CARTESIAN_POINT('',(56.124860801609,16.035674514745,0.));
#517 = CARTESIAN_POINT('',(72.160535316355,16.035674514745,0.));
#518 = CARTESIAN_POINT('',(56.124860801609,16.035674514745,
    20.044593143432));
#519 = CARTESIAN_POINT('',(72.160535316355,16.035674514745,
    20.044593143432));
#520 = ADVANCED_FACE('',(#521),#531,.F.);
#521 = FACE_BOUND('',#522,.T.);
#522 = EDGE_LOOP('',(#523,#528,#529,#530));
#523 = ORIENTED_EDGE('',*,*,#524,.T.);
#524 = EDGE_CURVE('',#266,#210,#525,.T.);
#525 = B_SPLINE_CURVE_WITH_KNOTS('',1,(#526,#527),.UNSPECIFIED.,.F.,.F.,
  (2,2),(0.,16.),.PIECEWISE_BEZIER_KNOTS.);
#526 = CARTESIAN_POINT('',(8.017837257373,16.035674514745,
    20.044593143432));
#527 = CARTESIAN_POINT('',(8.017837257373,37.416573867739,
    20.044593143432));
#528 = ORIENTED_EDGE('',*,*,#209,.F.);
#529 = ORIENTED_EDGE('',*,*,#236,.F.);
#530 = ORIENTED_EDGE('',*,*,#265,.T.);
#531 = B_SPLINE_SURFACE_WITH_KNOTS('',1,1,(
    (#532,#533)
    ,(#534,#535
    )),.UNSPECIFIED.,.F.,.F.,.F.,(2,2),(2,2),(0.,15.),(-16.,0.),
  .PIECEWISE_BEZIER_KNOTS.);
#532 = CARTESIAN_POINT('',(8.017837257373,37.416573867739,0.));
#533 = CARTESIAN_POINT('',(8.017837257373,16.035674514745,0.));
#534 = CARTESIAN_POINT('',(8.017837257373,37.416573867739,
    20.044593143432));
#535 = CARTESIAN_POINT('',(8.017837257373,16.035674514745,
    20.044593143432));
#536 = ADVANCED_FACE('',(#537),#555,.T.);
#537 = FACE_BOUND('',#538,.T.);
#538 = EDGE_LOOP('',(#539,#540,#541,#542,#543,#544,#545,#550,#551,#552,
    #553,#554));
#539 = ORIENTED_EDGE('',*,*,#524,.F.);
#540 = ORIENTED_EDGE('',*,*,#272,.T.);
#541 = ORIENTED_EDGE('',*,*,#292,.T.);
#542 = ORIENTED_EDGE('',*,*,#344,.T.);
#543 = ORIENTED_EDGE('',*,*,#408,.F.);
#544 = ORIENTED_EDGE('',*,*,#504,.T.);
#545 = ORIENTED_EDGE('',*,*,#546,.T.);
#546 = EDGE_CURVE('',#505,#461,#547,.T.);
#547 = B_SPLINE_CURVE_WITH_KNOTS('',1,(#548,#549),.UNSPECIFIED.,.F.,.F.,
  (2,2),(0.,16.),.PIECEWISE_BEZIER_KNOTS.);
#548 = CARTESIAN_POINT('',(72.160535316355,16.035674514745,
    20.044593143432));
#549 = CARTESIAN_POINT('',(72.160535316355,37.416573867739,
    20.044593143432));
#550 = ORIENTED_EDGE('',*,*,#460,.F.);
#551 = ORIENTED_EDGE('',*,*,#436,.F.);
#552 = ORIENTED_EDGE('',*,*,#388,.F.);
#553 = ORIENTED_EDGE('',*,*,#302,.T.);
#554 = ORIENTED_EDGE('',*,*,#216,.F.);
#555 = B_SPLINE_SURFACE_WITH_KNOTS('',1,1,(
    (#556,#557)
    ,(#558,#559
    )),.UNSPECIFIED.,.F.,.F.,.F.,(2,2),(2,2),(-24.,24.),(-8.,8.),
  .PIECEWISE_BEZIER_KNOTS.);
#556 = CARTESIAN_POINT('',(8.017837257373,16.035674514745,
    20.044593143432));
#557 = CARTESIAN_POINT('',(8.017837257373,37.416573867739,
    20.044593143432));
#558 = CARTESIAN_POINT('',(72.160535316355,16.035674514745,
    20.044593143432));
#559 = CARTESIAN_POINT('',(72.160535316355,37.416573867739,
    20.044593143432));
#560 = ADVANCED_FACE('',(#561),#567,.T.);
#561 = FACE_BOUND('',#562,.T.);
#562 = EDGE_LOOP('',(#563,#564,#565,#566));
#563 = ORIENTED_EDGE('',*,*,#546,.F.);
#564 = ORIENTED_EDGE('',*,*,#511,.F.);
#565 = ORIENTED_EDGE('',*,*,#488,.T.);
#566 = ORIENTED_EDGE('',*,*,#467,.T.);
#567 = B_SPLINE_SURFACE_WITH_KNOTS('',1,1,(
    (#568,#569)
    ,(#570,#571
    )),.UNSPECIFIED.,.F.,.F.,.F.,(2,2),(2,2),(0.,15.),(-16.,0.),
  .PIECEWISE_BEZIER_KNOTS.);
#568 = CARTESIAN_POINT('',(72.160535316355,37.416573867739,0.));
#569 = CARTESIAN_POINT('',(72.160535316355,16.035674514745,0.));
#570 = CARTESIAN_POINT('',(72.160535316355,37.416573867739,
    20.044593143432));
#571 = CARTESIAN_POINT('',(72.160535316355,16.035674514745,
    20.044593143432));
#572 = ( GEOMETRIC_REPRESENTATION_CONTEXT(3)
GLOBAL_UNCERTAINTY_ASSIGNED_CONTEXT((#576)) GLOBAL_UNIT_ASSIGNED_CONTEXT
((#573,#574,#575)) REPRESENTATION_CONTEXT('Context #1',
  '3D Context with UNIT and UNCERTAINTY') );
#573 = ( LENGTH_UNIT() NAMED_UNIT(*) SI_UNIT(.MILLI.,.METRE.) );
#574 = ( NAMED_UNIT(*) PLANE_ANGLE_UNIT() SI_UNIT($,.RADIAN.) );
#575 = ( NAMED_UNIT(*) SI_UNIT($,.STERADIAN.) SOLID_ANGLE_UNIT() );
#576 = UNCERTAINTY_MEASURE_WITH_UNIT(LENGTH_MEASURE(2.E-07),#573,
  'distance_accuracy_value','confusion accuracy');
#577 = CONTEXT_DEPENDENT_SHAPE_REPRESENTATION(#578,#580);
#578 = ( REPRESENTATION_RELATIONSHIP('','',#193,#10)
REPRESENTATION_RELATIONSHIP_WITH_TRANSFORMATION(#579)
SHAPE_REPRESENTATION_RELATIONSHIP() );
#579 = ITEM_DEFINED_TRANSFORMATION('','',#11,#19);
#580 = PRODUCT_DEFINITION_SHAPE('Placement','Placement of an item',#581
  );
#581 = NEXT_ASSEMBLY_USAGE_OCCURRENCE('2','Body_2','',#5,#188,$);
#582 = PRODUCT_RELATED_PRODUCT_CATEGORY('part',$,(#190));
ENDSEC;
END-ISO-10303-21;
