ISO-10303-21;
HEADER;
FILE_DESCRIPTION(('FreeCAD Model'),'2;1');
FILE_NAME('Open CASCADE Shape Model','2026-09-08T20:22:20',('Author'),(
    ''),'Open CASCADE STEP processor 7.8','FreeCAD','Unknown');
FILE_SCHEMA(('AUTOMOTIVE_DESIGN { 1 0 10303 214 1 1 1 1 }'));
ENDSEC;
DATA;
#1 = APPLICATION_PROTOCOL_DEFINITION('international standard',
  'automotive_design',2000,#2);
#2 = APPLICATION_CONTEXT(
  'core data for automotive mechanical design processes');
#3 = SHAPE_DEFINITION_REPRESENTATION(#4,#10);
#4 = PRODUCT_DEFINITION_SHAPE('','',#5);
#5 = PRODUCT_DEFINITION('design','',#6,#9);
#6 = PRODUCT_DEFINITION_FORMATION('','',#7);
#7 = PRODUCT('ContactCanonical03AGenerator',
  'ContactCanonical03AGenerator','',(#8));
#8 = PRODUCT_CONTEXT('',#2,'mechanical');
#9 = PRODUCT_DEFINITION_CONTEXT('part definition',#2,'design');
#10 = SHAPE_REPRESENTATION('',(#11,#15,#19),#23);
#11 = AXIS2_PLACEMENT_3D('',#12,#13,#14);
#12 = CARTESIAN_POINT('',(0.,0.,0.));
#13 = DIRECTION('',(0.,0.,1.));
#14 = DIRECTION('',(1.,0.,-0.));
#15 = AXIS2_PLACEMENT_3D('',#16,#17,#18);
#16 = CARTESIAN_POINT('',(0.,0.,0.));
#17 = DIRECTION('',(0.,0.,1.));
#18 = DIRECTION('',(1.,0.,0.));
#19 = AXIS2_PLACEMENT_3D('',#20,#21,#22);
#20 = CARTESIAN_POINT('',(0.,0.,0.));
#21 = DIRECTION('',(0.,0.,1.));
#22 = DIRECTION('',(1.,0.,0.));
#23 = ( GEOMETRIC_REPRESENTATION_CONTEXT(3)
GLOBAL_UNCERTAINTY_ASSIGNED_CONTEXT((#27)) GLOBAL_UNIT_ASSIGNED_CONTEXT(
(#24,#25,#26)) REPRESENTATION_CONTEXT('Context #1',
  '3D Context with UNIT and UNCERTAINTY') );
#24 = ( LENGTH_UNIT() NAMED_UNIT(*) SI_UNIT(.MILLI.,.METRE.) );
#25 = ( NAMED_UNIT(*) PLANE_ANGLE_UNIT() SI_UNIT($,.RADIAN.) );
#26 = ( NAMED_UNIT(*) SI_UNIT($,.STERADIAN.) SOLID_ANGLE_UNIT() );
#27 = UNCERTAINTY_MEASURE_WITH_UNIT(LENGTH_MEASURE(2.E-07),#24,
  'distance_accuracy_value','confusion accuracy');
#28 = PRODUCT_RELATED_PRODUCT_CATEGORY('part',$,(#7));
#29 = SHAPE_DEFINITION_REPRESENTATION(#30,#36);
#30 = PRODUCT_DEFINITION_SHAPE('','',#31);
#31 = PRODUCT_DEFINITION('design','',#32,#35);
#32 = PRODUCT_DEFINITION_FORMATION('','',#33);
#33 = PRODUCT('Body_1','Body_1','',(#34));
#34 = PRODUCT_CONTEXT('',#2,'mechanical');
#35 = PRODUCT_DEFINITION_CONTEXT('part definition',#2,'design');
#36 = ADVANCED_BREP_SHAPE_REPRESENTATION('',(#11,#37),#175);
#37 = MANIFOLD_SOLID_BREP('',#38);
#38 = CLOSED_SHELL('',(#39,#75,#111,#131,#151,#163));
#39 = ADVANCED_FACE('',(#40),#70,.F.);
#40 = FACE_BOUND('',#41,.F.);
#41 = EDGE_LOOP('',(#42,#51,#58,#65));
#42 = ORIENTED_EDGE('',*,*,#43,.F.);
#43 = EDGE_CURVE('',#44,#46,#48,.T.);
#44 = VERTEX_POINT('',#45);
#45 = CARTESIAN_POINT('',(0.,0.,0.));
#46 = VERTEX_POINT('',#47);
#47 = CARTESIAN_POINT('',(0.,0.,28.867513459481));
#48 = B_SPLINE_CURVE_WITH_KNOTS('',1,(#49,#50),.UNSPECIFIED.,.F.,.F.,(2,
    2),(0.,10.),.PIECEWISE_BEZIER_KNOTS.);
#49 = CARTESIAN_POINT('',(0.,0.,0.));
#50 = CARTESIAN_POINT('',(0.,0.,28.867513459481));
#51 = ORIENTED_EDGE('',*,*,#52,.T.);
#52 = EDGE_CURVE('',#44,#53,#55,.T.);
#53 = VERTEX_POINT('',#54);
#54 = CARTESIAN_POINT('',(0.,57.735026918963,0.));
#55 = B_SPLINE_CURVE_WITH_KNOTS('',1,(#56,#57),.UNSPECIFIED.,.F.,.F.,(2,
    2),(0.,20.),.PIECEWISE_BEZIER_KNOTS.);
#56 = CARTESIAN_POINT('',(0.,0.,0.));
#57 = CARTESIAN_POINT('',(0.,57.735026918963,0.));
#58 = ORIENTED_EDGE('',*,*,#59,.T.);
#59 = EDGE_CURVE('',#53,#60,#62,.T.);
#60 = VERTEX_POINT('',#61);
#61 = CARTESIAN_POINT('',(0.,57.735026918963,28.867513459481));
#62 = B_SPLINE_CURVE_WITH_KNOTS('',1,(#63,#64),.UNSPECIFIED.,.F.,.F.,(2,
    2),(0.,10.),.PIECEWISE_BEZIER_KNOTS.);
#63 = CARTESIAN_POINT('',(0.,57.735026918963,0.));
#64 = CARTESIAN_POINT('',(0.,57.735026918963,28.867513459481));
#65 = ORIENTED_EDGE('',*,*,#66,.F.);
#66 = EDGE_CURVE('',#46,#60,#67,.T.);
#67 = B_SPLINE_CURVE_WITH_KNOTS('',1,(#68,#69),.UNSPECIFIED.,.F.,.F.,(2,
    2),(0.,20.),.PIECEWISE_BEZIER_KNOTS.);
#68 = CARTESIAN_POINT('',(0.,0.,28.867513459481));
#69 = CARTESIAN_POINT('',(0.,57.735026918963,28.867513459481));
#70 = B_SPLINE_SURFACE_WITH_KNOTS('',1,1,(
    (#71,#72)
    ,(#73,#74
  )),.UNSPECIFIED.,.F.,.F.,.F.,(2,2),(2,2),(0.,10.),(-20.,0.),
  .PIECEWISE_BEZIER_KNOTS.);
#71 = CARTESIAN_POINT('',(0.,57.735026918963,0.));
#72 = CARTESIAN_POINT('',(0.,0.,0.));
#73 = CARTESIAN_POINT('',(0.,57.735026918963,28.867513459481));
#74 = CARTESIAN_POINT('',(0.,0.,28.867513459481));
#75 = ADVANCED_FACE('',(#76),#106,.T.);
#76 = FACE_BOUND('',#77,.T.);
#77 = EDGE_LOOP('',(#78,#87,#94,#101));
#78 = ORIENTED_EDGE('',*,*,#79,.F.);
#79 = EDGE_CURVE('',#80,#82,#84,.T.);
#80 = VERTEX_POINT('',#81);
#81 = CARTESIAN_POINT('',(57.735026918963,0.,0.));
#82 = VERTEX_POINT('',#83);
#83 = CARTESIAN_POINT('',(57.735026918963,0.,28.867513459481));
#84 = B_SPLINE_CURVE_WITH_KNOTS('',1,(#85,#86),.UNSPECIFIED.,.F.,.F.,(2,
    2),(0.,10.),.PIECEWISE_BEZIER_KNOTS.);
#85 = CARTESIAN_POINT('',(57.735026918963,0.,0.));
#86 = CARTESIAN_POINT('',(57.735026918963,0.,28.867513459481));
#87 = ORIENTED_EDGE('',*,*,#88,.T.);
#88 = EDGE_CURVE('',#80,#89,#91,.T.);
#89 = VERTEX_POINT('',#90);
#90 = CARTESIAN_POINT('',(57.735026918963,57.735026918963,0.));
#91 = B_SPLINE_CURVE_WITH_KNOTS('',1,(#92,#93),.UNSPECIFIED.,.F.,.F.,(2,
    2),(0.,20.),.PIECEWISE_BEZIER_KNOTS.);
#92 = CARTESIAN_POINT('',(57.735026918963,0.,0.));
#93 = CARTESIAN_POINT('',(57.735026918963,57.735026918963,0.));
#94 = ORIENTED_EDGE('',*,*,#95,.T.);
#95 = EDGE_CURVE('',#89,#96,#98,.T.);
#96 = VERTEX_POINT('',#97);
#97 = CARTESIAN_POINT('',(57.735026918963,57.735026918963,
    28.867513459481));
#98 = B_SPLINE_CURVE_WITH_KNOTS('',1,(#99,#100),.UNSPECIFIED.,.F.,.F.,(2
    ,2),(0.,10.),.PIECEWISE_BEZIER_KNOTS.);
#99 = CARTESIAN_POINT('',(57.735026918963,57.735026918963,0.));
#100 = CARTESIAN_POINT('',(57.735026918963,57.735026918963,
    28.867513459481));
#101 = ORIENTED_EDGE('',*,*,#102,.F.);
#102 = EDGE_CURVE('',#82,#96,#103,.T.);
#103 = B_SPLINE_CURVE_WITH_KNOTS('',1,(#104,#105),.UNSPECIFIED.,.F.,.F.,
  (2,2),(0.,20.),.PIECEWISE_BEZIER_KNOTS.);
#104 = CARTESIAN_POINT('',(57.735026918963,0.,28.867513459481));
#105 = CARTESIAN_POINT('',(57.735026918963,57.735026918963,
    28.867513459481));
#106 = B_SPLINE_SURFACE_WITH_KNOTS('',1,1,(
    (#107,#108)
    ,(#109,#110
    )),.UNSPECIFIED.,.F.,.F.,.F.,(2,2),(2,2),(0.,10.),(-20.,0.),
  .PIECEWISE_BEZIER_KNOTS.);
#107 = CARTESIAN_POINT('',(57.735026918963,57.735026918963,0.));
#108 = CARTESIAN_POINT('',(57.735026918963,0.,0.));
#109 = CARTESIAN_POINT('',(57.735026918963,57.735026918963,
    28.867513459481));
#110 = CARTESIAN_POINT('',(57.735026918963,0.,28.867513459481));
#111 = ADVANCED_FACE('',(#112),#126,.F.);
#112 = FACE_BOUND('',#113,.F.);
#113 = EDGE_LOOP('',(#114,#119,#120,#125));
#114 = ORIENTED_EDGE('',*,*,#115,.F.);
#115 = EDGE_CURVE('',#44,#80,#116,.T.);
#116 = B_SPLINE_CURVE_WITH_KNOTS('',1,(#117,#118),.UNSPECIFIED.,.F.,.F.,
  (2,2),(0.,20.),.PIECEWISE_BEZIER_KNOTS.);
#117 = CARTESIAN_POINT('',(0.,0.,0.));
#118 = CARTESIAN_POINT('',(57.735026918963,0.,0.));
#119 = ORIENTED_EDGE('',*,*,#43,.T.);
#120 = ORIENTED_EDGE('',*,*,#121,.T.);
#121 = EDGE_CURVE('',#46,#82,#122,.T.);
#122 = B_SPLINE_CURVE_WITH_KNOTS('',1,(#123,#124),.UNSPECIFIED.,.F.,.F.,
  (2,2),(0.,20.),.PIECEWISE_BEZIER_KNOTS.);
#123 = CARTESIAN_POINT('',(0.,0.,28.867513459481));
#124 = CARTESIAN_POINT('',(57.735026918963,0.,28.867513459481));
#125 = ORIENTED_EDGE('',*,*,#79,.F.);
#126 = B_SPLINE_SURFACE_WITH_KNOTS('',1,1,(
    (#127,#128)
    ,(#129,#130
    )),.UNSPECIFIED.,.F.,.F.,.F.,(2,2),(2,2),(0.,10.),(0.,20.),
  .PIECEWISE_BEZIER_KNOTS.);
#127 = CARTESIAN_POINT('',(0.,0.,0.));
#128 = CARTESIAN_POINT('',(57.735026918963,0.,0.));
#129 = CARTESIAN_POINT('',(0.,0.,28.867513459481));
#130 = CARTESIAN_POINT('',(57.735026918963,0.,28.867513459481));
#131 = ADVANCED_FACE('',(#132),#146,.T.);
#132 = FACE_BOUND('',#133,.T.);
#133 = EDGE_LOOP('',(#134,#139,#140,#145));
#134 = ORIENTED_EDGE('',*,*,#135,.F.);
#135 = EDGE_CURVE('',#53,#89,#136,.T.);
#136 = B_SPLINE_CURVE_WITH_KNOTS('',1,(#137,#138),.UNSPECIFIED.,.F.,.F.,
  (2,2),(0.,20.),.PIECEWISE_BEZIER_KNOTS.);
#137 = CARTESIAN_POINT('',(0.,57.735026918963,0.));
#138 = CARTESIAN_POINT('',(57.735026918963,57.735026918963,0.));
#139 = ORIENTED_EDGE('',*,*,#59,.T.);
#140 = ORIENTED_EDGE('',*,*,#141,.T.);
#141 = EDGE_CURVE('',#60,#96,#142,.T.);
#142 = B_SPLINE_CURVE_WITH_KNOTS('',1,(#143,#144),.UNSPECIFIED.,.F.,.F.,
  (2,2),(0.,20.),.PIECEWISE_BEZIER_KNOTS.);
#143 = CARTESIAN_POINT('',(0.,57.735026918963,28.867513459481));
#144 = CARTESIAN_POINT('',(57.735026918963,57.735026918963,
    28.867513459481));
#145 = ORIENTED_EDGE('',*,*,#95,.F.);
#146 = B_SPLINE_SURFACE_WITH_KNOTS('',1,1,(
    (#147,#148)
    ,(#149,#150
    )),.UNSPECIFIED.,.F.,.F.,.F.,(2,2),(2,2),(0.,10.),(0.,20.),
  .PIECEWISE_BEZIER_KNOTS.);
#147 = CARTESIAN_POINT('',(0.,57.735026918963,0.));
#148 = CARTESIAN_POINT('',(57.735026918963,57.735026918963,0.));
#149 = CARTESIAN_POINT('',(0.,57.735026918963,28.867513459481));
#150 = CARTESIAN_POINT('',(57.735026918963,57.735026918963,
    28.867513459481));
#151 = ADVANCED_FACE('',(#152),#158,.F.);
#152 = FACE_BOUND('',#153,.F.);
#153 = EDGE_LOOP('',(#154,#155,#156,#157));
#154 = ORIENTED_EDGE('',*,*,#52,.F.);
#155 = ORIENTED_EDGE('',*,*,#115,.T.);
#156 = ORIENTED_EDGE('',*,*,#88,.T.);
#157 = ORIENTED_EDGE('',*,*,#135,.F.);
#158 = B_SPLINE_SURFACE_WITH_KNOTS('',1,1,(
    (#159,#160)
    ,(#161,#162
    )),.UNSPECIFIED.,.F.,.F.,.F.,(2,2),(2,2),(0.,20.),(0.,20.),
  .PIECEWISE_BEZIER_KNOTS.);
#159 = CARTESIAN_POINT('',(0.,0.,0.));
#160 = CARTESIAN_POINT('',(0.,57.735026918963,0.));
#161 = CARTESIAN_POINT('',(57.735026918963,0.,0.));
#162 = CARTESIAN_POINT('',(57.735026918963,57.735026918963,0.));
#163 = ADVANCED_FACE('',(#164),#170,.T.);
#164 = FACE_BOUND('',#165,.T.);
#165 = EDGE_LOOP('',(#166,#167,#168,#169));
#166 = ORIENTED_EDGE('',*,*,#66,.F.);
#167 = ORIENTED_EDGE('',*,*,#121,.T.);
#168 = ORIENTED_EDGE('',*,*,#102,.T.);
#169 = ORIENTED_EDGE('',*,*,#141,.F.);
#170 = B_SPLINE_SURFACE_WITH_KNOTS('',1,1,(
    (#171,#172)
    ,(#173,#174
    )),.UNSPECIFIED.,.F.,.F.,.F.,(2,2),(2,2),(0.,20.),(0.,20.),
  .PIECEWISE_BEZIER_KNOTS.);
#171 = CARTESIAN_POINT('',(0.,0.,28.867513459481));
#172 = CARTESIAN_POINT('',(0.,57.735026918963,28.867513459481));
#173 = CARTESIAN_POINT('',(57.735026918963,0.,28.867513459481));
#174 = CARTESIAN_POINT('',(57.735026918963,57.735026918963,
    28.867513459481));
#175 = ( GEOMETRIC_REPRESENTATION_CONTEXT(3)
GLOBAL_UNCERTAINTY_ASSIGNED_CONTEXT((#179)) GLOBAL_UNIT_ASSIGNED_CONTEXT
((#176,#177,#178)) REPRESENTATION_CONTEXT('Context #1',
  '3D Context with UNIT and UNCERTAINTY') );
#176 = ( LENGTH_UNIT() NAMED_UNIT(*) SI_UNIT(.MILLI.,.METRE.) );
#177 = ( NAMED_UNIT(*) PLANE_ANGLE_UNIT() SI_UNIT($,.RADIAN.) );
#178 = ( NAMED_UNIT(*) SI_UNIT($,.STERADIAN.) SOLID_ANGLE_UNIT() );
#179 = UNCERTAINTY_MEASURE_WITH_UNIT(LENGTH_MEASURE(2.E-07),#176,
  'distance_accuracy_value','confusion accuracy');
#180 = CONTEXT_DEPENDENT_SHAPE_REPRESENTATION(#181,#183);
#181 = ( REPRESENTATION_RELATIONSHIP('','',#36,#10)
REPRESENTATION_RELATIONSHIP_WITH_TRANSFORMATION(#182)
SHAPE_REPRESENTATION_RELATIONSHIP() );
#182 = ITEM_DEFINED_TRANSFORMATION('','',#11,#15);
#183 = PRODUCT_DEFINITION_SHAPE('Placement','Placement of an item',#184
  );
#184 = NEXT_ASSEMBLY_USAGE_OCCURRENCE('1','Body_1','',#5,#31,$);
#185 = PRODUCT_RELATED_PRODUCT_CATEGORY('part',$,(#33));
#186 = SHAPE_DEFINITION_REPRESENTATION(#187,#193);
#187 = PRODUCT_DEFINITION_SHAPE('','',#188);
#188 = PRODUCT_DEFINITION('design','',#189,#192);
#189 = PRODUCT_DEFINITION_FORMATION('','',#190);
#190 = PRODUCT('Body_2','Body_2','',(#191));
#191 = PRODUCT_CONTEXT('',#2,'mechanical');
#192 = PRODUCT_DEFINITION_CONTEXT('part definition',#2,'design');
#193 = ADVANCED_BREP_SHAPE_REPRESENTATION('',(#11,#194),#332);
#194 = MANIFOLD_SOLID_BREP('',#195);
#195 = CLOSED_SHELL('',(#196,#232,#268,#288,#308,#320));
#196 = ADVANCED_FACE('',(#197),#227,.F.);
#197 = FACE_BOUND('',#198,.F.);
#198 = EDGE_LOOP('',(#199,#208,#215,#222));
#199 = ORIENTED_EDGE('',*,*,#200,.F.);
#200 = EDGE_CURVE('',#201,#203,#205,.T.);
#201 = VERTEX_POINT('',#202);
#202 = CARTESIAN_POINT('',(0.,0.,28.867513459481));
#203 = VERTEX_POINT('',#204);
#204 = CARTESIAN_POINT('',(0.,0.,57.735026918963));
#205 = B_SPLINE_CURVE_WITH_KNOTS('',1,(#206,#207),.UNSPECIFIED.,.F.,.F.,
  (2,2),(0.,10.),.PIECEWISE_BEZIER_KNOTS.);
#206 = CARTESIAN_POINT('',(0.,0.,28.867513459481));
#207 = CARTESIAN_POINT('',(0.,0.,57.735026918963));
#208 = ORIENTED_EDGE('',*,*,#209,.T.);
#209 = EDGE_CURVE('',#201,#210,#212,.T.);
#210 = VERTEX_POINT('',#211);
#211 = CARTESIAN_POINT('',(0.,57.735026918963,28.867513459481));
#212 = B_SPLINE_CURVE_WITH_KNOTS('',1,(#213,#214),.UNSPECIFIED.,.F.,.F.,
  (2,2),(0.,20.),.PIECEWISE_BEZIER_KNOTS.);
#213 = CARTESIAN_POINT('',(0.,0.,28.867513459481));
#214 = CARTESIAN_POINT('',(0.,57.735026918963,28.867513459481));
#215 = ORIENTED_EDGE('',*,*,#216,.T.);
#216 = EDGE_CURVE('',#210,#217,#219,.T.);
#217 = VERTEX_POINT('',#218);
#218 = CARTESIAN_POINT('',(0.,57.735026918963,57.735026918963));
#219 = B_SPLINE_CURVE_WITH_KNOTS('',1,(#220,#221),.UNSPECIFIED.,.F.,.F.,
  (2,2),(0.,10.),.PIECEWISE_BEZIER_KNOTS.);
#220 = CARTESIAN_POINT('',(0.,57.735026918963,28.867513459481));
#221 = CARTESIAN_POINT('',(0.,57.735026918963,57.735026918963));
#222 = ORIENTED_EDGE('',*,*,#223,.F.);
#223 = EDGE_CURVE('',#203,#217,#224,.T.);
#224 = B_SPLINE_CURVE_WITH_KNOTS('',1,(#225,#226),.UNSPECIFIED.,.F.,.F.,
  (2,2),(0.,20.),.PIECEWISE_BEZIER_KNOTS.);
#225 = CARTESIAN_POINT('',(0.,0.,57.735026918963));
#226 = CARTESIAN_POINT('',(0.,57.735026918963,57.735026918963));
#227 = B_SPLINE_SURFACE_WITH_KNOTS('',1,1,(
    (#228,#229)
    ,(#230,#231
    )),.UNSPECIFIED.,.F.,.F.,.F.,(2,2),(2,2),(0.,10.),(-20.,0.),
  .PIECEWISE_BEZIER_KNOTS.);
#228 = CARTESIAN_POINT('',(0.,57.735026918963,28.867513459481));
#229 = CARTESIAN_POINT('',(0.,0.,28.867513459481));
#230 = CARTESIAN_POINT('',(0.,57.735026918963,57.735026918963));
#231 = CARTESIAN_POINT('',(0.,0.,57.735026918963));
#232 = ADVANCED_FACE('',(#233),#263,.T.);
#233 = FACE_BOUND('',#234,.T.);
#234 = EDGE_LOOP('',(#235,#244,#251,#258));
#235 = ORIENTED_EDGE('',*,*,#236,.F.);
#236 = EDGE_CURVE('',#237,#239,#241,.T.);
#237 = VERTEX_POINT('',#238);
#238 = CARTESIAN_POINT('',(57.735026918963,0.,28.867513459481));
#239 = VERTEX_POINT('',#240);
#240 = CARTESIAN_POINT('',(57.735026918963,0.,57.735026918963));
#241 = B_SPLINE_CURVE_WITH_KNOTS('',1,(#242,#243),.UNSPECIFIED.,.F.,.F.,
  (2,2),(0.,10.),.PIECEWISE_BEZIER_KNOTS.);
#242 = CARTESIAN_POINT('',(57.735026918963,0.,28.867513459481));
#243 = CARTESIAN_POINT('',(57.735026918963,0.,57.735026918963));
#244 = ORIENTED_EDGE('',*,*,#245,.T.);
#245 = EDGE_CURVE('',#237,#246,#248,.T.);
#246 = VERTEX_POINT('',#247);
#247 = CARTESIAN_POINT('',(57.735026918963,57.735026918963,
    28.867513459481));
#248 = B_SPLINE_CURVE_WITH_KNOTS('',1,(#249,#250),.UNSPECIFIED.,.F.,.F.,
  (2,2),(0.,20.),.PIECEWISE_BEZIER_KNOTS.);
#249 = CARTESIAN_POINT('',(57.735026918963,0.,28.867513459481));
#250 = CARTESIAN_POINT('',(57.735026918963,57.735026918963,
    28.867513459481));
#251 = ORIENTED_EDGE('',*,*,#252,.T.);
#252 = EDGE_CURVE('',#246,#253,#255,.T.);
#253 = VERTEX_POINT('',#254);
#254 = CARTESIAN_POINT('',(57.735026918963,57.735026918963,
    57.735026918963));
#255 = B_SPLINE_CURVE_WITH_KNOTS('',1,(#256,#257),.UNSPECIFIED.,.F.,.F.,
  (2,2),(0.,10.),.PIECEWISE_BEZIER_KNOTS.);
#256 = CARTESIAN_POINT('',(57.735026918963,57.735026918963,
    28.867513459481));
#257 = CARTESIAN_POINT('',(57.735026918963,57.735026918963,
    57.735026918963));
#258 = ORIENTED_EDGE('',*,*,#259,.F.);
#259 = EDGE_CURVE('',#239,#253,#260,.T.);
#260 = B_SPLINE_CURVE_WITH_KNOTS('',1,(#261,#262),.UNSPECIFIED.,.F.,.F.,
  (2,2),(0.,20.),.PIECEWISE_BEZIER_KNOTS.);
#261 = CARTESIAN_POINT('',(57.735026918963,0.,57.735026918963));
#262 = CARTESIAN_POINT('',(57.735026918963,57.735026918963,
    57.735026918963));
#263 = B_SPLINE_SURFACE_WITH_KNOTS('',1,1,(
    (#264,#265)
    ,(#266,#267
    )),.UNSPECIFIED.,.F.,.F.,.F.,(2,2),(2,2),(0.,10.),(-20.,0.),
  .PIECEWISE_BEZIER_KNOTS.);
#264 = CARTESIAN_POINT('',(57.735026918963,57.735026918963,
    28.867513459481));
#265 = CARTESIAN_POINT('',(57.735026918963,0.,28.867513459481));
#266 = CARTESIAN_POINT('',(57.735026918963,57.735026918963,
    57.735026918963));
#267 = CARTESIAN_POINT('',(57.735026918963,0.,57.735026918963));
#268 = ADVANCED_FACE('',(#269),#283,.F.);
#269 = FACE_BOUND('',#270,.F.);
#270 = EDGE_LOOP('',(#271,#276,#277,#282));
#271 = ORIENTED_EDGE('',*,*,#272,.F.);
#272 = EDGE_CURVE('',#201,#237,#273,.T.);
#273 = B_SPLINE_CURVE_WITH_KNOTS('',1,(#274,#275),.UNSPECIFIED.,.F.,.F.,
  (2,2),(0.,20.),.PIECEWISE_BEZIER_KNOTS.);
#274 = CARTESIAN_POINT('',(0.,0.,28.867513459481));
#275 = CARTESIAN_POINT('',(57.735026918963,0.,28.867513459481));
#276 = ORIENTED_EDGE('',*,*,#200,.T.);
#277 = ORIENTED_EDGE('',*,*,#278,.T.);
#278 = EDGE_CURVE('',#203,#239,#279,.T.);
#279 = B_SPLINE_CURVE_WITH_KNOTS('',1,(#280,#281),.UNSPECIFIED.,.F.,.F.,
  (2,2),(0.,20.),.PIECEWISE_BEZIER_KNOTS.);
#280 = CARTESIAN_POINT('',(0.,0.,57.735026918963));
#281 = CARTESIAN_POINT('',(57.735026918963,0.,57.735026918963));
#282 = ORIENTED_EDGE('',*,*,#236,.F.);
#283 = B_SPLINE_SURFACE_WITH_KNOTS('',1,1,(
    (#284,#285)
    ,(#286,#287
    )),.UNSPECIFIED.,.F.,.F.,.F.,(2,2),(2,2),(0.,10.),(0.,20.),
  .PIECEWISE_BEZIER_KNOTS.);
#284 = CARTESIAN_POINT('',(0.,0.,28.867513459481));
#285 = CARTESIAN_POINT('',(57.735026918963,0.,28.867513459481));
#286 = CARTESIAN_POINT('',(0.,0.,57.735026918963));
#287 = CARTESIAN_POINT('',(57.735026918963,0.,57.735026918963));
#288 = ADVANCED_FACE('',(#289),#303,.T.);
#289 = FACE_BOUND('',#290,.T.);
#290 = EDGE_LOOP('',(#291,#296,#297,#302));
#291 = ORIENTED_EDGE('',*,*,#292,.F.);
#292 = EDGE_CURVE('',#210,#246,#293,.T.);
#293 = B_SPLINE_CURVE_WITH_KNOTS('',1,(#294,#295),.UNSPECIFIED.,.F.,.F.,
  (2,2),(0.,20.),.PIECEWISE_BEZIER_KNOTS.);
#294 = CARTESIAN_POINT('',(0.,57.735026918963,28.867513459481));
#295 = CARTESIAN_POINT('',(57.735026918963,57.735026918963,
    28.867513459481));
#296 = ORIENTED_EDGE('',*,*,#216,.T.);
#297 = ORIENTED_EDGE('',*,*,#298,.T.);
#298 = EDGE_CURVE('',#217,#253,#299,.T.);
#299 = B_SPLINE_CURVE_WITH_KNOTS('',1,(#300,#301),.UNSPECIFIED.,.F.,.F.,
  (2,2),(0.,20.),.PIECEWISE_BEZIER_KNOTS.);
#300 = CARTESIAN_POINT('',(0.,57.735026918963,57.735026918963));
#301 = CARTESIAN_POINT('',(57.735026918963,57.735026918963,
    57.735026918963));
#302 = ORIENTED_EDGE('',*,*,#252,.F.);
#303 = B_SPLINE_SURFACE_WITH_KNOTS('',1,1,(
    (#304,#305)
    ,(#306,#307
    )),.UNSPECIFIED.,.F.,.F.,.F.,(2,2),(2,2),(0.,10.),(0.,20.),
  .PIECEWISE_BEZIER_KNOTS.);
#304 = CARTESIAN_POINT('',(0.,57.735026918963,28.867513459481));
#305 = CARTESIAN_POINT('',(57.735026918963,57.735026918963,
    28.867513459481));
#306 = CARTESIAN_POINT('',(0.,57.735026918963,57.735026918963));
#307 = CARTESIAN_POINT('',(57.735026918963,57.735026918963,
    57.735026918963));
#308 = ADVANCED_FACE('',(#309),#315,.F.);
#309 = FACE_BOUND('',#310,.F.);
#310 = EDGE_LOOP('',(#311,#312,#313,#314));
#311 = ORIENTED_EDGE('',*,*,#209,.F.);
#312 = ORIENTED_EDGE('',*,*,#272,.T.);
#313 = ORIENTED_EDGE('',*,*,#245,.T.);
#314 = ORIENTED_EDGE('',*,*,#292,.F.);
#315 = B_SPLINE_SURFACE_WITH_KNOTS('',1,1,(
    (#316,#317)
    ,(#318,#319
    )),.UNSPECIFIED.,.F.,.F.,.F.,(2,2),(2,2),(0.,20.),(0.,20.),
  .PIECEWISE_BEZIER_KNOTS.);
#316 = CARTESIAN_POINT('',(0.,0.,28.867513459481));
#317 = CARTESIAN_POINT('',(0.,57.735026918963,28.867513459481));
#318 = CARTESIAN_POINT('',(57.735026918963,0.,28.867513459481));
#319 = CARTESIAN_POINT('',(57.735026918963,57.735026918963,
    28.867513459481));
#320 = ADVANCED_FACE('',(#321),#327,.T.);
#321 = FACE_BOUND('',#322,.T.);
#322 = EDGE_LOOP('',(#323,#324,#325,#326));
#323 = ORIENTED_EDGE('',*,*,#223,.F.);
#324 = ORIENTED_EDGE('',*,*,#278,.T.);
#325 = ORIENTED_EDGE('',*,*,#259,.T.);
#326 = ORIENTED_EDGE('',*,*,#298,.F.);
#327 = B_SPLINE_SURFACE_WITH_KNOTS('',1,1,(
    (#328,#329)
    ,(#330,#331
    )),.UNSPECIFIED.,.F.,.F.,.F.,(2,2),(2,2),(0.,20.),(0.,20.),
  .PIECEWISE_BEZIER_KNOTS.);
#328 = CARTESIAN_POINT('',(0.,0.,57.735026918963));
#329 = CARTESIAN_POINT('',(0.,57.735026918963,57.735026918963));
#330 = CARTESIAN_POINT('',(57.735026918963,0.,57.735026918963));
#331 = CARTESIAN_POINT('',(57.735026918963,57.735026918963,
    57.735026918963));
#332 = ( GEOMETRIC_REPRESENTATION_CONTEXT(3)
GLOBAL_UNCERTAINTY_ASSIGNED_CONTEXT((#336)) GLOBAL_UNIT_ASSIGNED_CONTEXT
((#333,#334,#335)) REPRESENTATION_CONTEXT('Context #1',
  '3D Context with UNIT and UNCERTAINTY') );
#333 = ( LENGTH_UNIT() NAMED_UNIT(*) SI_UNIT(.MILLI.,.METRE.) );
#334 = ( NAMED_UNIT(*) PLANE_ANGLE_UNIT() SI_UNIT($,.RADIAN.) );
#335 = ( NAMED_UNIT(*) SI_UNIT($,.STERADIAN.) SOLID_ANGLE_UNIT() );
#336 = UNCERTAINTY_MEASURE_WITH_UNIT(LENGTH_MEASURE(2.E-07),#333,
  'distance_accuracy_value','confusion accuracy');
#337 = CONTEXT_DEPENDENT_SHAPE_REPRESENTATION(#338,#340);
#338 = ( REPRESENTATION_RELATIONSHIP('','',#193,#10)
REPRESENTATION_RELATIONSHIP_WITH_TRANSFORMATION(#339)
SHAPE_REPRESENTATION_RELATIONSHIP() );
#339 = ITEM_DEFINED_TRANSFORMATION('','',#11,#19);
#340 = PRODUCT_DEFINITION_SHAPE('Placement','Placement of an item',#341
  );
#341 = NEXT_ASSEMBLY_USAGE_OCCURRENCE('2','Body_2','',#5,#188,$);
#342 = PRODUCT_RELATED_PRODUCT_CATEGORY('part',$,(#190));
ENDSEC;
END-ISO-10303-21;
