DBRep_DrawableShape

CASCADE Topology V1, (c) Matra-Datavision
Locations 8
1
              1               0               0               0 
              0               1               0               0 
              0               0               1               0 
1
              1               0               0               0 
              0               1               0               0 
              0               0               1               0 
1
              1               0               0           -0.05 
              0               1               0              -0 
              0               0               1              -0 
2  2 1 3 1 0
2  1 1 3 -1 2 -1 0
2  3 -1 2 -1 0
2  2 1 3 1 1 -1 0
2  1 -1 0
Curve2ds 10
1 0 30 1 0 
2 0 0 1 0 -0 1 10
1 0 40 1 0 
1 6.2831853071795862 0 0 1 
1 0 0 0 1 
8 10 40
1 6.2831853071795862 -10 0 1 
8 10 40
1 0 -10 0 1 
1 0 0 1 0 
2 0 0 1 0 -0 1 10
1 0 10 1 0 
Curves 3
2 0.050000000000000003 0 30 0 0 1 1 0 -0 -0 1 0 10
1 10 -2.449293598295e-15 -10 0 0 1 
2 0.050000000000000003 0 0 0 0 1 1 0 -0 -0 1 0 10
Polygon3D 0
PolygonOnTriangulations 0
Surfaces 4
2 0 0 -10 0 0 1 1 0 -0 -0 1 0 10
2 0.050000000000000003 0 0 0 0 1 1 0 -0 -0 1 0 10
1 0.050000000000000003 0 30 0 0 1 1 0 -0 -0 1 0 
1 0.050000000000000003 0 0 0 0 1 1 0 -0 -0 1 0 
Triangulations 0

TShapes 8
Ve
1.00000000888178e-07
10 -2.449293598295e-15 30
0 0

0101101
*
Ed
 1.00000000888178e-07 1 1 0
1  1 0 0 6.28318530717959
2  1 2 0 0 6.28318530717959
2  2 3 0 0 6.28318530717959
2  3 1 5 0 6.28318530717959
0

0101000
+8 6 -8 6 *
Ve
1.00000000888178e-07
10 -2.449293598295e-15 0
0 0

0101101
*
Ed
 1e-07 1 1 0
1  2 0 10 40
3  4 5CN 1 0 10 40
3  6 7C0 2 7 10 40
0

0101000
+6 8 -8 8 *
Ed
 1.00000000888178e-07 1 1 0
1  3 0 0 6.28318530717959
2  8 2 0 0 6.28318530717959
2  9 4 0 0 6.28318530717959
2  10 1 5 0 6.28318530717959
0

0101000
+6 6 -6 6 *
Wi

0101100
-7 4 +5 1 +4 4 -5 1 *
Fa
0  1e-07 1 1

0101000
+3 0 *
Sh

1101000
-2 0 *

+1 0 