ISO-10303-21;
HEADER;
FILE_DESCRIPTION(('FreeCAD Model'),'2;1');
FILE_NAME('Open CASCADE Shape Model','2026-09-08T20:22:23',('Author'),(
    ''),'Open CASCADE STEP processor 7.8','FreeCAD','Unknown');
FILE_SCHEMA(('AUTOMOTIVE_DESIGN { 1 0 10303 214 1 1 1 1 }'));
ENDSEC;
DATA;
#1 = APPLICATION_PROTOCOL_DEFINITION('international standard',
  'automotive_design',2000,#2);
#2 = APPLICATION_CONTEXT(
  'core data for automotive mechanical design processes');
#3 = SHAPE_DEFINITION_REPRESENTATION(#4,#10);
#4 = PRODUCT_DEFINITION_SHAPE('','',#5);
#5 = PRODUCT_DEFINITION('design','',#6,#9);
#6 = PRODUCT_DEFINITION_FORMATION('','',#7);
#7 = PRODUCT('ContactCanonical03AGenerator',
  'ContactCanonical03AGenerator','',(#8));
#8 = PRODUCT_CONTEXT('',#2,'mechanical');
#9 = PRODUCT_DEFINITION_CONTEXT('part definition',#2,'design');
#10 = SHAPE_REPRESENTATION('',(#11,#15,#19),#23);
#11 = AXIS2_PLACEMENT_3D('',#12,#13,#14);
#12 = CARTESIAN_POINT('',(0.,0.,0.));
#13 = DIRECTION('',(0.,0.,1.));
#14 = DIRECTION('',(1.,0.,-0.));
#15 = AXIS2_PLACEMENT_3D('',#16,#17,#18);
#16 = CARTESIAN_POINT('',(0.,0.,0.));
#17 = DIRECTION('',(0.,0.,1.));
#18 = DIRECTION('',(1.,0.,0.));
#19 = AXIS2_PLACEMENT_3D('',#20,#21,#22);
#20 = CARTESIAN_POINT('',(0.,0.,0.));
#21 = DIRECTION('',(0.,0.,1.));
#22 = DIRECTION('',(1.,0.,0.));
#23 = ( GEOMETRIC_REPRESENTATION_CONTEXT(3)
GLOBAL_UNCERTAINTY_ASSIGNED_CONTEXT((#27)) GLOBAL_UNIT_ASSIGNED_CONTEXT(
(#24,#25,#26)) REPRESENTATION_CONTEXT('Context #1',
  '3D Context with UNIT and UNCERTAINTY') );
#24 = ( LENGTH_UNIT() NAMED_UNIT(*) SI_UNIT(.MILLI.,.METRE.) );
#25 = ( NAMED_UNIT(*) PLANE_ANGLE_UNIT() SI_UNIT($,.RADIAN.) );
#26 = ( NAMED_UNIT(*) SI_UNIT($,.STERADIAN.) SOLID_ANGLE_UNIT() );
#27 = UNCERTAINTY_MEASURE_WITH_UNIT(LENGTH_MEASURE(1.E-07),#24,
  'distance_accuracy_value','confusion accuracy');
#28 = PRODUCT_RELATED_PRODUCT_CATEGORY('part',$,(#7));
#29 = SHAPE_DEFINITION_REPRESENTATION(#30,#36);
#30 = PRODUCT_DEFINITION_SHAPE('','',#31);
#31 = PRODUCT_DEFINITION('design','',#32,#35);
#32 = PRODUCT_DEFINITION_FORMATION('','',#33);
#33 = PRODUCT('Body_1','Body_1','',(#34));
#34 = PRODUCT_CONTEXT('',#2,'mechanical');
#35 = PRODUCT_DEFINITION_CONTEXT('part definition',#2,'design');
#36 = ADVANCED_BREP_SHAPE_REPRESENTATION('',(#11,#37),#175);
#37 = MANIFOLD_SOLID_BREP('',#38);
#38 = CLOSED_SHELL('',(#39,#75,#111,#131,#151,#163));
#39 = ADVANCED_FACE('',(#40),#70,.F.);
#40 = FACE_BOUND('',#41,.F.);
#41 = EDGE_LOOP('',(#42,#51,#58,#65));
#42 = ORIENTED_EDGE('',*,*,#43,.F.);
#43 = EDGE_CURVE('',#44,#46,#48,.T.);
#44 = VERTEX_POINT('',#45);
#45 = CARTESIAN_POINT('',(-33.33333333333,-33.33333333333,
    -11.11111111111));
#46 = VERTEX_POINT('',#47);
#47 = CARTESIAN_POINT('',(-33.33333333333,-33.33333333333,0.));
#48 = B_SPLINE_CURVE_WITH_KNOTS('',1,(#49,#50),.UNSPECIFIED.,.F.,.F.,(2,
    2),(0.,10.),.PIECEWISE_BEZIER_KNOTS.);
#49 = CARTESIAN_POINT('',(-33.33333333333,-33.33333333333,
    -11.11111111111));
#50 = CARTESIAN_POINT('',(-33.33333333333,-33.33333333333,0.));
#51 = ORIENTED_EDGE('',*,*,#52,.T.);
#52 = EDGE_CURVE('',#44,#53,#55,.T.);
#53 = VERTEX_POINT('',#54);
#54 = CARTESIAN_POINT('',(-33.33333333333,33.333333333333,
    -11.11111111111));
#55 = B_SPLINE_CURVE_WITH_KNOTS('',1,(#56,#57),.UNSPECIFIED.,.F.,.F.,(2,
    2),(0.,60.),.PIECEWISE_BEZIER_KNOTS.);
#56 = CARTESIAN_POINT('',(-33.33333333333,-33.33333333333,
    -11.11111111111));
#57 = CARTESIAN_POINT('',(-33.33333333333,33.333333333333,
    -11.11111111111));
#58 = ORIENTED_EDGE('',*,*,#59,.T.);
#59 = EDGE_CURVE('',#53,#60,#62,.T.);
#60 = VERTEX_POINT('',#61);
#61 = CARTESIAN_POINT('',(-33.33333333333,33.333333333333,0.));
#62 = B_SPLINE_CURVE_WITH_KNOTS('',1,(#63,#64),.UNSPECIFIED.,.F.,.F.,(2,
    2),(0.,10.),.PIECEWISE_BEZIER_KNOTS.);
#63 = CARTESIAN_POINT('',(-33.33333333333,33.333333333333,
    -11.11111111111));
#64 = CARTESIAN_POINT('',(-33.33333333333,33.333333333333,0.));
#65 = ORIENTED_EDGE('',*,*,#66,.F.);
#66 = EDGE_CURVE('',#46,#60,#67,.T.);
#67 = B_SPLINE_CURVE_WITH_KNOTS('',1,(#68,#69),.UNSPECIFIED.,.F.,.F.,(2,
    2),(0.,60.),.PIECEWISE_BEZIER_KNOTS.);
#68 = CARTESIAN_POINT('',(-33.33333333333,-33.33333333333,0.));
#69 = CARTESIAN_POINT('',(-33.33333333333,33.333333333333,0.));
#70 = B_SPLINE_SURFACE_WITH_KNOTS('',1,1,(
    (#71,#72)
    ,(#73,#74
  )),.UNSPECIFIED.,.F.,.F.,.F.,(2,2),(2,2),(0.,10.),(-60.,0.),
  .PIECEWISE_BEZIER_KNOTS.);
#71 = CARTESIAN_POINT('',(-33.33333333333,33.333333333333,
    -11.11111111111));
#72 = CARTESIAN_POINT('',(-33.33333333333,-33.33333333333,
    -11.11111111111));
#73 = CARTESIAN_POINT('',(-33.33333333333,33.333333333333,0.));
#74 = CARTESIAN_POINT('',(-33.33333333333,-33.33333333333,0.));
#75 = ADVANCED_FACE('',(#76),#106,.T.);
#76 = FACE_BOUND('',#77,.T.);
#77 = EDGE_LOOP('',(#78,#87,#94,#101));
#78 = ORIENTED_EDGE('',*,*,#79,.F.);
#79 = EDGE_CURVE('',#80,#82,#84,.T.);
#80 = VERTEX_POINT('',#81);
#81 = CARTESIAN_POINT('',(33.333333333333,-33.33333333333,
    -11.11111111111));
#82 = VERTEX_POINT('',#83);
#83 = CARTESIAN_POINT('',(33.333333333333,-33.33333333333,0.));
#84 = B_SPLINE_CURVE_WITH_KNOTS('',1,(#85,#86),.UNSPECIFIED.,.F.,.F.,(2,
    2),(0.,10.),.PIECEWISE_BEZIER_KNOTS.);
#85 = CARTESIAN_POINT('',(33.333333333333,-33.33333333333,
    -11.11111111111));
#86 = CARTESIAN_POINT('',(33.333333333333,-33.33333333333,0.));
#87 = ORIENTED_EDGE('',*,*,#88,.T.);
#88 = EDGE_CURVE('',#80,#89,#91,.T.);
#89 = VERTEX_POINT('',#90);
#90 = CARTESIAN_POINT('',(33.333333333333,33.333333333333,
    -11.11111111111));
#91 = B_SPLINE_CURVE_WITH_KNOTS('',1,(#92,#93),.UNSPECIFIED.,.F.,.F.,(2,
    2),(0.,60.),.PIECEWISE_BEZIER_KNOTS.);
#92 = CARTESIAN_POINT('',(33.333333333333,-33.33333333333,
    -11.11111111111));
#93 = CARTESIAN_POINT('',(33.333333333333,33.333333333333,
    -11.11111111111));
#94 = ORIENTED_EDGE('',*,*,#95,.T.);
#95 = EDGE_CURVE('',#89,#96,#98,.T.);
#96 = VERTEX_POINT('',#97);
#97 = CARTESIAN_POINT('',(33.333333333333,33.333333333333,0.));
#98 = B_SPLINE_CURVE_WITH_KNOTS('',1,(#99,#100),.UNSPECIFIED.,.F.,.F.,(2
    ,2),(0.,10.),.PIECEWISE_BEZIER_KNOTS.);
#99 = CARTESIAN_POINT('',(33.333333333333,33.333333333333,
    -11.11111111111));
#100 = CARTESIAN_POINT('',(33.333333333333,33.333333333333,0.));
#101 = ORIENTED_EDGE('',*,*,#102,.F.);
#102 = EDGE_CURVE('',#82,#96,#103,.T.);
#103 = B_SPLINE_CURVE_WITH_KNOTS('',1,(#104,#105),.UNSPECIFIED.,.F.,.F.,
  (2,2),(0.,60.),.PIECEWISE_BEZIER_KNOTS.);
#104 = CARTESIAN_POINT('',(33.333333333333,-33.33333333333,0.));
#105 = CARTESIAN_POINT('',(33.333333333333,33.333333333333,0.));
#106 = B_SPLINE_SURFACE_WITH_KNOTS('',1,1,(
    (#107,#108)
    ,(#109,#110
    )),.UNSPECIFIED.,.F.,.F.,.F.,(2,2),(2,2),(0.,10.),(-60.,0.),
  .PIECEWISE_BEZIER_KNOTS.);
#107 = CARTESIAN_POINT('',(33.333333333333,33.333333333333,
    -11.11111111111));
#108 = CARTESIAN_POINT('',(33.333333333333,-33.33333333333,
    -11.11111111111));
#109 = CARTESIAN_POINT('',(33.333333333333,33.333333333333,0.));
#110 = CARTESIAN_POINT('',(33.333333333333,-33.33333333333,0.));
#111 = ADVANCED_FACE('',(#112),#126,.F.);
#112 = FACE_BOUND('',#113,.F.);
#113 = EDGE_LOOP('',(#114,#119,#120,#125));
#114 = ORIENTED_EDGE('',*,*,#115,.F.);
#115 = EDGE_CURVE('',#44,#80,#116,.T.);
#116 = B_SPLINE_CURVE_WITH_KNOTS('',1,(#117,#118),.UNSPECIFIED.,.F.,.F.,
  (2,2),(0.,60.),.PIECEWISE_BEZIER_KNOTS.);
#117 = CARTESIAN_POINT('',(-33.33333333333,-33.33333333333,
    -11.11111111111));
#118 = CARTESIAN_POINT('',(33.333333333333,-33.33333333333,
    -11.11111111111));
#119 = ORIENTED_EDGE('',*,*,#43,.T.);
#120 = ORIENTED_EDGE('',*,*,#121,.T.);
#121 = EDGE_CURVE('',#46,#82,#122,.T.);
#122 = B_SPLINE_CURVE_WITH_KNOTS('',1,(#123,#124),.UNSPECIFIED.,.F.,.F.,
  (2,2),(0.,60.),.PIECEWISE_BEZIER_KNOTS.);
#123 = CARTESIAN_POINT('',(-33.33333333333,-33.33333333333,0.));
#124 = CARTESIAN_POINT('',(33.333333333333,-33.33333333333,0.));
#125 = ORIENTED_EDGE('',*,*,#79,.F.);
#126 = B_SPLINE_SURFACE_WITH_KNOTS('',1,1,(
    (#127,#128)
    ,(#129,#130
    )),.UNSPECIFIED.,.F.,.F.,.F.,(2,2),(2,2),(0.,10.),(0.,60.),
  .PIECEWISE_BEZIER_KNOTS.);
#127 = CARTESIAN_POINT('',(-33.33333333333,-33.33333333333,
    -11.11111111111));
#128 = CARTESIAN_POINT('',(33.333333333333,-33.33333333333,
    -11.11111111111));
#129 = CARTESIAN_POINT('',(-33.33333333333,-33.33333333333,0.));
#130 = CARTESIAN_POINT('',(33.333333333333,-33.33333333333,0.));
#131 = ADVANCED_FACE('',(#132),#146,.T.);
#132 = FACE_BOUND('',#133,.T.);
#133 = EDGE_LOOP('',(#134,#139,#140,#145));
#134 = ORIENTED_EDGE('',*,*,#135,.F.);
#135 = EDGE_CURVE('',#53,#89,#136,.T.);
#136 = B_SPLINE_CURVE_WITH_KNOTS('',1,(#137,#138),.UNSPECIFIED.,.F.,.F.,
  (2,2),(0.,60.),.PIECEWISE_BEZIER_KNOTS.);
#137 = CARTESIAN_POINT('',(-33.33333333333,33.333333333333,
    -11.11111111111));
#138 = CARTESIAN_POINT('',(33.333333333333,33.333333333333,
    -11.11111111111));
#139 = ORIENTED_EDGE('',*,*,#59,.T.);
#140 = ORIENTED_EDGE('',*,*,#141,.T.);
#141 = EDGE_CURVE('',#60,#96,#142,.T.);
#142 = B_SPLINE_CURVE_WITH_KNOTS('',1,(#143,#144),.UNSPECIFIED.,.F.,.F.,
  (2,2),(0.,60.),.PIECEWISE_BEZIER_KNOTS.);
#143 = CARTESIAN_POINT('',(-33.33333333333,33.333333333333,0.));
#144 = CARTESIAN_POINT('',(33.333333333333,33.333333333333,0.));
#145 = ORIENTED_EDGE('',*,*,#95,.F.);
#146 = B_SPLINE_SURFACE_WITH_KNOTS('',1,1,(
    (#147,#148)
    ,(#149,#150
    )),.UNSPECIFIED.,.F.,.F.,.F.,(2,2),(2,2),(0.,10.),(0.,60.),
  .PIECEWISE_BEZIER_KNOTS.);
#147 = CARTESIAN_POINT('',(-33.33333333333,33.333333333333,
    -11.11111111111));
#148 = CARTESIAN_POINT('',(33.333333333333,33.333333333333,
    -11.11111111111));
#149 = CARTESIAN_POINT('',(-33.33333333333,33.333333333333,0.));
#150 = CARTESIAN_POINT('',(33.333333333333,33.333333333333,0.));
#151 = ADVANCED_FACE('',(#152),#158,.F.);
#152 = FACE_BOUND('',#153,.F.);
#153 = EDGE_LOOP('',(#154,#155,#156,#157));
#154 = ORIENTED_EDGE('',*,*,#52,.F.);
#155 = ORIENTED_EDGE('',*,*,#115,.T.);
#156 = ORIENTED_EDGE('',*,*,#88,.T.);
#157 = ORIENTED_EDGE('',*,*,#135,.F.);
#158 = B_SPLINE_SURFACE_WITH_KNOTS('',1,1,(
    (#159,#160)
    ,(#161,#162
    )),.UNSPECIFIED.,.F.,.F.,.F.,(2,2),(2,2),(0.,60.),(0.,60.),
  .PIECEWISE_BEZIER_KNOTS.);
#159 = CARTESIAN_POINT('',(-33.33333333333,-33.33333333333,
    -11.11111111111));
#160 = CARTESIAN_POINT('',(-33.33333333333,33.333333333333,
    -11.11111111111));
#161 = CARTESIAN_POINT('',(33.333333333333,-33.33333333333,
    -11.11111111111));
#162 = CARTESIAN_POINT('',(33.333333333333,33.333333333333,
    -11.11111111111));
#163 = ADVANCED_FACE('',(#164),#170,.T.);
#164 = FACE_BOUND('',#165,.T.);
#165 = EDGE_LOOP('',(#166,#167,#168,#169));
#166 = ORIENTED_EDGE('',*,*,#66,.F.);
#167 = ORIENTED_EDGE('',*,*,#121,.T.);
#168 = ORIENTED_EDGE('',*,*,#102,.T.);
#169 = ORIENTED_EDGE('',*,*,#141,.F.);
#170 = B_SPLINE_SURFACE_WITH_KNOTS('',1,1,(
    (#171,#172)
    ,(#173,#174
    )),.UNSPECIFIED.,.F.,.F.,.F.,(2,2),(2,2),(0.,60.),(0.,60.),
  .PIECEWISE_BEZIER_KNOTS.);
#171 = CARTESIAN_POINT('',(-33.33333333333,-33.33333333333,0.));
#172 = CARTESIAN_POINT('',(-33.33333333333,33.333333333333,0.));
#173 = CARTESIAN_POINT('',(33.333333333333,-33.33333333333,0.));
#174 = CARTESIAN_POINT('',(33.333333333333,33.333333333333,0.));
#175 = ( GEOMETRIC_REPRESENTATION_CONTEXT(3)
GLOBAL_UNCERTAINTY_ASSIGNED_CONTEXT((#179)) GLOBAL_UNIT_ASSIGNED_CONTEXT
((#176,#177,#178)) REPRESENTATION_CONTEXT('Context #1',
  '3D Context with UNIT and UNCERTAINTY') );
#176 = ( LENGTH_UNIT() NAMED_UNIT(*) SI_UNIT(.MILLI.,.METRE.) );
#177 = ( NAMED_UNIT(*) PLANE_ANGLE_UNIT() SI_UNIT($,.RADIAN.) );
#178 = ( NAMED_UNIT(*) SI_UNIT($,.STERADIAN.) SOLID_ANGLE_UNIT() );
#179 = UNCERTAINTY_MEASURE_WITH_UNIT(LENGTH_MEASURE(1.E-07),#176,
  'distance_accuracy_value','confusion accuracy');
#180 = CONTEXT_DEPENDENT_SHAPE_REPRESENTATION(#181,#183);
#181 = ( REPRESENTATION_RELATIONSHIP('','',#36,#10)
REPRESENTATION_RELATIONSHIP_WITH_TRANSFORMATION(#182)
SHAPE_REPRESENTATION_RELATIONSHIP() );
#182 = ITEM_DEFINED_TRANSFORMATION('','',#11,#15);
#183 = PRODUCT_DEFINITION_SHAPE('Placement','Placement of an item',#184
  );
#184 = NEXT_ASSEMBLY_USAGE_OCCURRENCE('1','Body_1','',#5,#31,$);
#185 = PRODUCT_RELATED_PRODUCT_CATEGORY('part',$,(#33));
#186 = SHAPE_DEFINITION_REPRESENTATION(#187,#193);
#187 = PRODUCT_DEFINITION_SHAPE('','',#188);
#188 = PRODUCT_DEFINITION('design','',#189,#192);
#189 = PRODUCT_DEFINITION_FORMATION('','',#190);
#190 = PRODUCT('Body_2','Body_2','',(#191));
#191 = PRODUCT_CONTEXT('',#2,'mechanical');
#192 = PRODUCT_DEFINITION_CONTEXT('part definition',#2,'design');
#193 = ADVANCED_BREP_SHAPE_REPRESENTATION('',(#11,#194),#237);
#194 = MANIFOLD_SOLID_BREP('',#195);
#195 = CLOSED_SHELL('',(#196));
#196 = ADVANCED_FACE('',(#197),#201,.T.);
#197 = FACE_BOUND('',#198,.T.);
#198 = VERTEX_LOOP('',#199);
#199 = VERTEX_POINT('',#200);
#200 = CARTESIAN_POINT('',(6.803593328596E-16,-1.666399758513E-31,0.));
#201 = ( BOUNDED_SURFACE() B_SPLINE_SURFACE(2,2,(
    (#202,#203,#204,#205,#206)
    ,(#207,#208,#209,#210,#211)
    ,(#212,#213,#214,#215,#216)
    ,(#217,#218,#219,#220,#221)
    ,(#222,#223,#224,#225,#226)
    ,(#227,#228,#229,#230,#231)
    ,(#232,#233,#234,#235,#236
)),.UNSPECIFIED.,.T.,.F.,.F.) B_SPLINE_SURFACE_WITH_KNOTS((1,2,2,2,2,1),
  (3,2,3),(-2.094395102393,0.,2.094395102393,4.188790204786,
    6.28318530718,8.377580409573),(-1.570796326795,0.,1.570796326795),
.UNSPECIFIED.) GEOMETRIC_REPRESENTATION_ITEM() RATIONAL_B_SPLINE_SURFACE
((
    (1.,0.707106781187,1.,0.707106781187,1.)
    ,(0.5,0.353553390593,0.5,0.353553390593,0.5)
    ,(1.,0.707106781187,1.,0.707106781187,1.)
    ,(0.5,0.353553390593,0.5,0.353553390593,0.5)
    ,(1.,0.707106781187,1.,0.707106781187,1.)
    ,(0.5,0.353553390593,0.5,0.353553390593,0.5)
,(1.,0.707106781187,1.,0.707106781187,1.
))) REPRESENTATION_ITEM('') SURFACE() );
#202 = CARTESIAN_POINT('',(6.803593328596E-16,0.,0.));
#203 = CARTESIAN_POINT('',(11.111111111111,0.,0.));
#204 = CARTESIAN_POINT('',(11.111111111111,0.,11.111111111111));
#205 = CARTESIAN_POINT('',(11.111111111111,0.,22.222222222222));
#206 = CARTESIAN_POINT('',(6.803593328596E-16,0.,22.222222222222));
#207 = CARTESIAN_POINT('',(6.803593328596E-16,1.178416931917E-15,0.));
#208 = CARTESIAN_POINT('',(11.111111111111,19.245008972988,0.));
#209 = CARTESIAN_POINT('',(11.111111111111,19.245008972988,
    11.111111111111));
#210 = CARTESIAN_POINT('',(11.111111111111,19.245008972988,
    22.222222222222));
#211 = CARTESIAN_POINT('',(6.803593328596E-16,1.178416931917E-15,
    22.222222222222));
#212 = CARTESIAN_POINT('',(-3.401796664298E-16,5.892084659583E-16,0.));
#213 = CARTESIAN_POINT('',(-5.555555555556,9.622504486494,0.));
#214 = CARTESIAN_POINT('',(-5.555555555556,9.622504486494,
    11.111111111111));
#215 = CARTESIAN_POINT('',(-5.555555555556,9.622504486494,
    22.222222222222));
#216 = CARTESIAN_POINT('',(-3.401796664298E-16,5.892084659583E-16,
    22.222222222222));
#217 = CARTESIAN_POINT('',(-1.360718665719E-15,1.666399758513E-31,0.));
#218 = CARTESIAN_POINT('',(-22.22222222222,2.721437331439E-15,0.));
#219 = CARTESIAN_POINT('',(-22.22222222222,2.721437331439E-15,
    11.111111111111));
#220 = CARTESIAN_POINT('',(-22.22222222222,2.721437331439E-15,
    22.222222222222));
#221 = CARTESIAN_POINT('',(-1.360718665719E-15,1.666399758513E-31,
    22.222222222222));
#222 = CARTESIAN_POINT('',(-3.401796664298E-16,-5.892084659583E-16,0.));
#223 = CARTESIAN_POINT('',(-5.555555555556,-9.622504486494,0.));
#224 = CARTESIAN_POINT('',(-5.555555555556,-9.622504486494,
    11.111111111111));
#225 = CARTESIAN_POINT('',(-5.555555555556,-9.622504486494,
    22.222222222222));
#226 = CARTESIAN_POINT('',(-3.401796664298E-16,-5.892084659583E-16,
    22.222222222222));
#227 = CARTESIAN_POINT('',(6.803593328596E-16,-1.178416931917E-15,0.));
#228 = CARTESIAN_POINT('',(11.111111111111,-19.24500897298,0.));
#229 = CARTESIAN_POINT('',(11.111111111111,-19.24500897298,
    11.111111111111));
#230 = CARTESIAN_POINT('',(11.111111111111,-19.24500897298,
    22.222222222222));
#231 = CARTESIAN_POINT('',(6.803593328596E-16,-1.178416931917E-15,
    22.222222222222));
#232 = CARTESIAN_POINT('',(6.803593328596E-16,0.,0.));
#233 = CARTESIAN_POINT('',(11.111111111111,0.,0.));
#234 = CARTESIAN_POINT('',(11.111111111111,0.,11.111111111111));
#235 = CARTESIAN_POINT('',(11.111111111111,0.,22.222222222222));
#236 = CARTESIAN_POINT('',(6.803593328596E-16,0.,22.222222222222));
#237 = ( GEOMETRIC_REPRESENTATION_CONTEXT(3)
GLOBAL_UNCERTAINTY_ASSIGNED_CONTEXT((#241)) GLOBAL_UNIT_ASSIGNED_CONTEXT
((#238,#239,#240)) REPRESENTATION_CONTEXT('Context #1',
  '3D Context with UNIT and UNCERTAINTY') );
#238 = ( LENGTH_UNIT() NAMED_UNIT(*) SI_UNIT(.MILLI.,.METRE.) );
#239 = ( NAMED_UNIT(*) PLANE_ANGLE_UNIT() SI_UNIT($,.RADIAN.) );
#240 = ( NAMED_UNIT(*) SI_UNIT($,.STERADIAN.) SOLID_ANGLE_UNIT() );
#241 = UNCERTAINTY_MEASURE_WITH_UNIT(LENGTH_MEASURE(1.E-07),#238,
  'distance_accuracy_value','confusion accuracy');
#242 = CONTEXT_DEPENDENT_SHAPE_REPRESENTATION(#243,#245);
#243 = ( REPRESENTATION_RELATIONSHIP('','',#193,#10)
REPRESENTATION_RELATIONSHIP_WITH_TRANSFORMATION(#244)
SHAPE_REPRESENTATION_RELATIONSHIP() );
#244 = ITEM_DEFINED_TRANSFORMATION('','',#11,#19);
#245 = PRODUCT_DEFINITION_SHAPE('Placement','Placement of an item',#246
  );
#246 = NEXT_ASSEMBLY_USAGE_OCCURRENCE('2','Body_2','',#5,#188,$);
#247 = PRODUCT_RELATED_PRODUCT_CATEGORY('part',$,(#190));
ENDSEC;
END-ISO-10303-21;
