ISO-10303-21;
HEADER;
FILE_DESCRIPTION(('FreeCAD Model'),'2;1');
FILE_NAME('Open CASCADE Shape Model','2026-09-10T19:55:43',('Author'),(
    ''),'Open CASCADE STEP processor 7.8','FreeCAD','Unknown');
FILE_SCHEMA(('AUTOMOTIVE_DESIGN { 1 0 10303 214 1 1 1 1 }'));
ENDSEC;
DATA;
#1 = APPLICATION_PROTOCOL_DEFINITION('international standard',
  'automotive_design',2000,#2);
#2 = APPLICATION_CONTEXT(
  'core data for automotive mechanical design processes');
#3 = SHAPE_DEFINITION_REPRESENTATION(#4,#10);
#4 = PRODUCT_DEFINITION_SHAPE('','',#5);
#5 = PRODUCT_DEFINITION('design','',#6,#9);
#6 = PRODUCT_DEFINITION_FORMATION('','',#7);
#7 = PRODUCT('Fused_Result','Fused_Result','',(#8));
#8 = PRODUCT_CONTEXT('',#2,'mechanical');
#9 = PRODUCT_DEFINITION_CONTEXT('part definition',#2,'design');
#10 = ADVANCED_BREP_SHAPE_REPRESENTATION('',(#11,#15),#158);
#11 = AXIS2_PLACEMENT_3D('',#12,#13,#14);
#12 = CARTESIAN_POINT('',(0.,0.,0.));
#13 = DIRECTION('',(0.,0.,1.));
#14 = DIRECTION('',(1.,0.,-0.));
#15 = MANIFOLD_SOLID_BREP('',#16);
#16 = CLOSED_SHELL('',(#17,#50,#70,#90,#115,#140,#149));
#17 = ADVANCED_FACE('',(#18),#45,.T.);
#18 = FACE_BOUND('',#19,.T.);
#19 = EDGE_LOOP('',(#20,#29,#37,#44));
#20 = ORIENTED_EDGE('',*,*,#21,.F.);
#21 = EDGE_CURVE('',#22,#22,#24,.T.);
#22 = VERTEX_POINT('',#23);
#23 = CARTESIAN_POINT('',(55.89087296526,-23.,41.606601717798));
#24 = CIRCLE('',#25,20.);
#25 = AXIS2_PLACEMENT_3D('',#26,#27,#28);
#26 = CARTESIAN_POINT('',(41.748737341529,-23.,55.748737341529));
#27 = DIRECTION('',(0.707106781187,-0.,0.707106781187));
#28 = DIRECTION('',(0.707106781187,0.,-0.707106781187));
#29 = ORIENTED_EDGE('',*,*,#30,.F.);
#30 = EDGE_CURVE('',#31,#22,#33,.T.);
#31 = VERTEX_POINT('',#32);
#32 = CARTESIAN_POINT('',(27.606601717798,-23.,13.322330470336));
#33 = LINE('',#34,#35);
#34 = CARTESIAN_POINT('',(27.606601717798,-23.,13.322330470336));
#35 = VECTOR('',#36,1.);
#36 = DIRECTION('',(0.707106781187,0.,0.707106781187));
#37 = ORIENTED_EDGE('',*,*,#38,.T.);
#38 = EDGE_CURVE('',#31,#31,#39,.T.);
#39 = CIRCLE('',#40,20.);
#40 = AXIS2_PLACEMENT_3D('',#41,#42,#43);
#41 = CARTESIAN_POINT('',(13.464466094067,-23.,27.464466094067));
#42 = DIRECTION('',(0.707106781187,-0.,0.707106781187));
#43 = DIRECTION('',(0.707106781187,0.,-0.707106781187));
#44 = ORIENTED_EDGE('',*,*,#30,.T.);
#45 = CYLINDRICAL_SURFACE('',#46,20.);
#46 = AXIS2_PLACEMENT_3D('',#47,#48,#49);
#47 = CARTESIAN_POINT('',(13.464466094067,-23.,27.464466094067));
#48 = DIRECTION('',(0.707106781187,0.,0.707106781187));
#49 = DIRECTION('',(0.707106781187,0.,-0.707106781187));
#50 = ADVANCED_FACE('',(#51,#54),#65,.T.);
#51 = FACE_BOUND('',#52,.T.);
#52 = EDGE_LOOP('',(#53));
#53 = ORIENTED_EDGE('',*,*,#21,.T.);
#54 = FACE_BOUND('',#55,.T.);
#55 = EDGE_LOOP('',(#56));
#56 = ORIENTED_EDGE('',*,*,#57,.F.);
#57 = EDGE_CURVE('',#58,#58,#60,.T.);
#58 = VERTEX_POINT('',#59);
#59 = CARTESIAN_POINT('',(48.819805153395,-23.,48.677669529664));
#60 = CIRCLE('',#61,10.);
#61 = AXIS2_PLACEMENT_3D('',#62,#63,#64);
#62 = CARTESIAN_POINT('',(41.748737341529,-23.,55.748737341529));
#63 = DIRECTION('',(0.707106781187,-0.,0.707106781187));
#64 = DIRECTION('',(0.707106781187,0.,-0.707106781187));
#65 = PLANE('',#66);
#66 = AXIS2_PLACEMENT_3D('',#67,#68,#69);
#67 = CARTESIAN_POINT('',(41.748737341529,-23.,55.748737341529));
#68 = DIRECTION('',(0.707106781187,0.,0.707106781187));
#69 = DIRECTION('',(0.707106781187,0.,-0.707106781187));
#70 = ADVANCED_FACE('',(#71,#74),#85,.F.);
#71 = FACE_BOUND('',#72,.F.);
#72 = EDGE_LOOP('',(#73));
#73 = ORIENTED_EDGE('',*,*,#38,.T.);
#74 = FACE_BOUND('',#75,.F.);
#75 = EDGE_LOOP('',(#76));
#76 = ORIENTED_EDGE('',*,*,#77,.F.);
#77 = EDGE_CURVE('',#78,#78,#80,.T.);
#78 = VERTEX_POINT('',#79);
#79 = CARTESIAN_POINT('',(20.535533905933,-23.,20.393398282202));
#80 = CIRCLE('',#81,10.);
#81 = AXIS2_PLACEMENT_3D('',#82,#83,#84);
#82 = CARTESIAN_POINT('',(13.464466094067,-23.,27.464466094067));
#83 = DIRECTION('',(0.707106781187,-0.,0.707106781187));
#84 = DIRECTION('',(0.707106781187,0.,-0.707106781187));
#85 = PLANE('',#86);
#86 = AXIS2_PLACEMENT_3D('',#87,#88,#89);
#87 = CARTESIAN_POINT('',(13.464466094067,-23.,27.464466094067));
#88 = DIRECTION('',(0.707106781187,0.,0.707106781187));
#89 = DIRECTION('',(0.707106781187,0.,-0.707106781187));
#90 = ADVANCED_FACE('',(#91),#110,.F.);
#91 = FACE_BOUND('',#92,.F.);
#92 = EDGE_LOOP('',(#93,#101,#102,#103));
#93 = ORIENTED_EDGE('',*,*,#94,.T.);
#94 = EDGE_CURVE('',#95,#58,#97,.T.);
#95 = VERTEX_POINT('',#96);
#96 = CARTESIAN_POINT('',(45.284271247462,-23.,45.142135623731));
#97 = LINE('',#98,#99);
#98 = CARTESIAN_POINT('',(17.,-23.,16.857864376269));
#99 = VECTOR('',#100,1.);
#100 = DIRECTION('',(0.707106781187,0.,0.707106781187));
#101 = ORIENTED_EDGE('',*,*,#57,.F.);
#102 = ORIENTED_EDGE('',*,*,#94,.F.);
#103 = ORIENTED_EDGE('',*,*,#104,.T.);
#104 = EDGE_CURVE('',#95,#95,#105,.T.);
#105 = CIRCLE('',#106,10.);
#106 = AXIS2_PLACEMENT_3D('',#107,#108,#109);
#107 = CARTESIAN_POINT('',(38.213203435596,-23.,52.213203435596));
#108 = DIRECTION('',(0.707106781187,-0.,0.707106781187));
#109 = DIRECTION('',(0.707106781187,0.,-0.707106781187));
#110 = CYLINDRICAL_SURFACE('',#111,10.);
#111 = AXIS2_PLACEMENT_3D('',#112,#113,#114);
#112 = CARTESIAN_POINT('',(9.928932188135,-23.,23.928932188135));
#113 = DIRECTION('',(0.707106781187,0.,0.707106781187));
#114 = DIRECTION('',(0.707106781187,0.,-0.707106781187));
#115 = ADVANCED_FACE('',(#116),#135,.F.);
#116 = FACE_BOUND('',#117,.F.);
#117 = EDGE_LOOP('',(#118,#127,#133,#134));
#118 = ORIENTED_EDGE('',*,*,#119,.F.);
#119 = EDGE_CURVE('',#120,#120,#122,.T.);
#120 = VERTEX_POINT('',#121);
#121 = CARTESIAN_POINT('',(24.071067811865,-23.,23.928932188135));
#122 = CIRCLE('',#123,10.);
#123 = AXIS2_PLACEMENT_3D('',#124,#125,#126);
#124 = CARTESIAN_POINT('',(17.,-23.,31.));
#125 = DIRECTION('',(0.707106781187,-0.,0.707106781187));
#126 = DIRECTION('',(0.707106781187,0.,-0.707106781187));
#127 = ORIENTED_EDGE('',*,*,#128,.F.);
#128 = EDGE_CURVE('',#78,#120,#129,.T.);
#129 = LINE('',#130,#131);
#130 = CARTESIAN_POINT('',(17.,-23.,16.857864376269));
#131 = VECTOR('',#132,1.);
#132 = DIRECTION('',(0.707106781187,0.,0.707106781187));
#133 = ORIENTED_EDGE('',*,*,#77,.T.);
#134 = ORIENTED_EDGE('',*,*,#128,.T.);
#135 = CYLINDRICAL_SURFACE('',#136,10.);
#136 = AXIS2_PLACEMENT_3D('',#137,#138,#139);
#137 = CARTESIAN_POINT('',(9.928932188135,-23.,23.928932188135));
#138 = DIRECTION('',(0.707106781187,0.,0.707106781187));
#139 = DIRECTION('',(0.707106781187,0.,-0.707106781187));
#140 = ADVANCED_FACE('',(#141),#144,.T.);
#141 = FACE_BOUND('',#142,.T.);
#142 = EDGE_LOOP('',(#143));
#143 = ORIENTED_EDGE('',*,*,#104,.T.);
#144 = PLANE('',#145);
#145 = AXIS2_PLACEMENT_3D('',#146,#147,#148);
#146 = CARTESIAN_POINT('',(38.213203435596,-23.,52.213203435596));
#147 = DIRECTION('',(0.707106781187,0.,0.707106781187));
#148 = DIRECTION('',(0.707106781187,0.,-0.707106781187));
#149 = ADVANCED_FACE('',(#150),#153,.F.);
#150 = FACE_BOUND('',#151,.T.);
#151 = EDGE_LOOP('',(#152));
#152 = ORIENTED_EDGE('',*,*,#119,.F.);
#153 = PLANE('',#154);
#154 = AXIS2_PLACEMENT_3D('',#155,#156,#157);
#155 = CARTESIAN_POINT('',(17.,-23.,31.));
#156 = DIRECTION('',(0.707106781187,0.,0.707106781187));
#157 = DIRECTION('',(0.707106781187,0.,-0.707106781187));
#158 = ( GEOMETRIC_REPRESENTATION_CONTEXT(3) 
GLOBAL_UNCERTAINTY_ASSIGNED_CONTEXT((#162)) GLOBAL_UNIT_ASSIGNED_CONTEXT
((#159,#160,#161)) REPRESENTATION_CONTEXT('Context #1',
  '3D Context with UNIT and UNCERTAINTY') );
#159 = ( LENGTH_UNIT() NAMED_UNIT(*) SI_UNIT(.MILLI.,.METRE.) );
#160 = ( NAMED_UNIT(*) PLANE_ANGLE_UNIT() SI_UNIT($,.RADIAN.) );
#161 = ( NAMED_UNIT(*) SI_UNIT($,.STERADIAN.) SOLID_ANGLE_UNIT() );
#162 = UNCERTAINTY_MEASURE_WITH_UNIT(LENGTH_MEASURE(1.E-07),#159,
  'distance_accuracy_value','confusion accuracy');
#163 = PRODUCT_RELATED_PRODUCT_CATEGORY('part',$,(#7));
ENDSEC;
END-ISO-10303-21;
