DBRep_DrawableShape

CASCADE Topology V1, (c) Matra-Datavision
Locations 6
1
              1               0               0               0 
              0               1               0               0 
              0               0               1               0 
1
              1               0               0               0 
              0               1               0               0 
              0               0               1               0 
1
              1               0               0              -0 
              0               1               0              -0 
              0               0               1 -0.0500000000000007 
2  2 1 3 1 0
2  3 -1 2 -1 0
2  1 -1 0
Curve2ds 2
1 0 0 0 -1 
1 0 0 0 1 
Curves 4
1 16 0 10.050000000000001 -0 1 0 
1 0 20 10 1 0 -0 
1 40 0 10 -0 1 0 
1 0 0 10 1 0 -0 
Polygon3D 0
PolygonOnTriangulations 0
Surfaces 6
1 0 0 10 0 0 1 1 0 -0 -0 1 0 
1 16 0 10.050000000000001 1 0 -0 0 0 1 0 -1 0 
1 16 0 10.050000000000001 0 0 1 1 0 -0 -0 1 0 
1 0 20 0 -0 1 0 0 0 1 1 0 -0 
1 40 0 0 1 0 -0 0 0 1 0 -1 0 
1 0 0 0 -0 1 0 0 0 1 1 0 -0 
Triangulations 0

TShapes 11
Ve
1e-07
16 0 10
0 0

0101101
*
Ve
1e-07
16 20 10
0 0

0101101
*
Ed
 1e-07 1 1 0
1  1 0 0 20
2  1 2 0 0 20
2  2 3 0 0 20
0

0101000
+11 5 -10 5 *
Ve
1e-07
40 20 10
0 0

0101101
*
Ed
 1e-07 1 1 0
1  2 0 16 40
4 C0 4 0 1 0
0

0101000
+10 6 -8 6 *
Ve
1e-07
40 0 10
0 0

0101101
*
Ed
 1e-07 1 1 0
1  3 0 0 20
4 C0 5 0 1 0
0

0101000
+6 6 -8 6 *
Ed
 1e-07 1 1 0
1  4 0 16 40
4 C0 6 0 1 0
0

0101000
+11 6 -6 6 *
Wi

0101100
-9 4 -7 1 +5 1 +4 1 *
Fa
0  1e-07 1 1

0101000
+3 0 *
Co

1100000
+2 0 *

+1 0 