DBRep_DrawableShape

CASCADE Topology V1, (c) Matra-Datavision
Locations 7
1
              1               0               0               0 
              0               1               0               0 
              0               0               1               0 
1
              1               0               0              -0 
              0               1               0              -0 
              0               0               1 -0.0500000000000007 
2  1 1 2 1 0
1
              1               0               0               0 
              0               1               0               0 
              0               0               1               0 
2  4 -1 0
2  2 -1 1 -1 0
2  1 -1 0
Curve2ds 6
1 0 0 0 1 
1 0 20 1 0 
1 0 0 0 -1 
1 40 0 0 1 
1 0 0 0 1 
1 0 0 1 0 
Curves 4
1 40 0 10 -0 1 0 
1 16 20 10.050000000000001 1 0 -0 
1 56 0 10.050000000000001 -0 1 0 
1 16 0 10.050000000000001 1 0 -0 
Polygon3D 0
PolygonOnTriangulations 0
Surfaces 6
1 16 0 10.050000000000001 0 0 1 1 0 -0 -0 1 0 
1 40 0 0 1 0 -0 0 0 1 0 -1 0 
1 0 0 10 0 0 1 1 0 -0 -0 1 0 
1 16 20 10.050000000000001 -0 1 0 0 0 1 1 0 -0 
1 56 0 10.050000000000001 1 0 -0 0 0 1 0 -1 0 
1 16 0 10.050000000000001 -0 1 0 0 0 1 1 0 -0 
Triangulations 0

TShapes 11
Ve
1e-07
40 0 10
0 0

0101101
*
Ve
1e-07
40 20 10
0 0

0101101
*
Ed
 1e-07 1 1 0
1  1 0 0 20
4 C0 2 0 3 0
0

0101000
+11 5 -10 5 *
Ve
1e-07
56 20 10.05
0 0

0101101
*
Ed
 1e-07 1 1 0
1  2 0 24 40
2  1 4 0 24 40
2  2 1 0 24 40
0

0101000
+10 6 -8 7 *
Ve
1e-07
56 0 10.05
0 0

0101101
*
Ed
 1e-07 1 1 0
1  3 0 0 20
2  3 5 0 0 20
2  4 1 0 0 20
0

0101000
+6 7 -8 7 *
Ed
 1e-07 1 1 0
1  4 0 24 40
2  5 6 0 24 40
2  6 1 0 24 40
0

0101000
+11 6 -6 7 *
Wi

0101100
-9 4 -7 3 +5 3 +4 3 *
Fa
0  1e-07 1 3

0101000
+3 0 *
Co

1100000
-2 0 *

+1 0 